# https://github.com/mikedh/trimesh

o convex_0
v 0.02731210 0.01616200 -0.03368800
v 0.02806480 0.01614080 -0.03444370
v 0.02731210 0.01615140 -0.03444370
v 0.02618950 0.01612660 -0.03444370
v 0.02543680 0.01611600 -0.03368800
v 0.02543680 0.01612310 -0.03181240
v 0.02731210 0.01613020 -0.03181240
v 0.02931060 0.01607710 -0.03361060
v 0.02925870 0.01609120 -0.03444370
v 0.02544330 0.01609480 -0.03444370
v 0.02414550 0.01603460 -0.03368800
v 0.02406770 0.01603810 -0.03181240
v 0.02422340 0.01602400 -0.03072660
v 0.02356150 0.01551770 -0.01493640
v 0.02543680 0.01557440 -0.01493640
v 0.02731210 0.01568770 -0.01868760
v 0.02918740 0.01562750 -0.01868760
v 0.02918740 0.01585760 -0.02618780
v 0.03030340 0.01602400 -0.03418420
v 0.03034240 0.01602750 -0.03444370
v 0.02982970 0.01605940 -0.03444370
v 0.03106260 0.01568410 -0.02431220
v 0.03106260 0.01574080 -0.02618780
v 0.02426880 0.01602040 -0.03444370
v 0.02321110 0.01593190 -0.03368800
v 0.02313330 0.01594250 -0.03181240
v 0.01981100 0.01520270 -0.01493640
v 0.02168630 0.01539380 -0.01493640
v 0.02356150 0.01545050 -0.01306080
v 0.02543680 0.01550710 -0.01306080
v 0.02731210 0.01556020 -0.01493640
v 0.02918740 0.01553540 -0.01681200
v 0.03106260 0.01542920 -0.01868760
v 0.03106260 0.01560620 -0.02243890
v 0.03106260 0.01579030 -0.02806340
v 0.03293790 0.01564160 -0.02993910
v 0.03481320 0.01540800 -0.03181240
v 0.03481320 0.01539380 -0.03368800
v 0.03556590 0.01526640 -0.03444370
v 0.03293790 0.01551770 -0.02618780
v 0.03293790 0.01559210 -0.02806340
v 0.02339280 0.01589300 -0.03444370
v 0.02168630 0.01570180 -0.03368800
v 0.02168630 0.01573010 -0.03181240
v 0.01793570 0.01490890 -0.01118970
v 0.01981100 0.01510000 -0.01118970
v 0.02168630 0.01524520 -0.01118970
v 0.02356150 0.01537260 -0.01118970
v 0.02543680 0.01541510 -0.01118970
v 0.02731210 0.01545760 -0.01306080
v 0.02918740 0.01543630 -0.01493640
v 0.03106260 0.01531600 -0.01681200
v 0.03293790 0.01499030 -0.01681200
v 0.03293790 0.01542920 -0.02431220
v 0.03481320 0.01534070 -0.02993910
v 0.03668840 0.01506110 -0.03368800
v 0.03668840 0.01507170 -0.03444370
v 0.02250390 0.01575850 -0.03444370
v 0.02168630 0.01562040 -0.03444370
v 0.01981100 0.01531240 -0.03368800
v 0.01981100 0.01536550 -0.03181240
v 0.00856583 0.01329460 -0.01118970
v 0.01050600 0.01366630 -0.01118970
v 0.01227100 0.01398490 -0.01118970
v 0.01256940 0.01403800 -0.01118970
v 0.01314700 0.01414070 -0.01118970
v 0.01378930 0.01425040 -0.01118970
v 0.01606690 0.01463270 -0.01118970
v 0.02731210 0.01533010 -0.01118970
v 0.02918740 0.01531240 -0.01306080
v 0.03106260 0.01519910 -0.01493640
v 0.03293790 0.01484510 -0.01493640
v 0.03426160 0.01423620 -0.01118970
v 0.03481320 0.01451940 -0.01681200
v 0.03481320 0.01515310 -0.02618780
v 0.03668840 0.01498670 -0.03181240
v 0.03744120 0.01486990 -0.03444370
v 0.02056370 0.01538680 -0.03444370
v 0.01981100 0.01522040 -0.03444370
v -0.00081702 0.01096520 -0.02618780
v 0.00105825 0.01142190 -0.02618780
v 0.00105825 0.01155640 -0.02431220
v 0.00293353 0.01199540 -0.02431220
v 0.00398472 0.01223260 -0.02431220
v 0.00262206 0.01212640 -0.01118970
v 0.02918740 0.01516730 -0.01118970
v 0.03106260 0.01505400 -0.01306080
v 0.03293790 0.01469290 -0.01306080
v 0.03293790 0.01453710 -0.01118970
v 0.03519600 0.01396370 -0.01118970
v 0.03582540 0.01415130 -0.01563970
v 0.03668840 0.01465750 -0.02618780
v 0.03668840 0.01478850 -0.02806340
v 0.03873890 0.01443800 -0.03353550
v 0.03866110 0.01450530 -0.03444370
v 0.01868840 0.01490890 -0.03444370
v -0.00196554 0.01047670 -0.02740110
v -0.01019340 0.00786058 -0.02431220
v -0.01051130 0.00829601 -0.01118970
v 0.00105825 0.01175110 -0.01118970
v 0.03106260 0.01490180 -0.01118970
v 0.03668840 0.01343260 -0.01118970
v 0.03911530 0.01396370 -0.02806340
v 0.03817440 0.01432470 -0.02806340
v 0.03964740 0.01417960 -0.03405680
v 0.03964740 0.01418310 -0.03444370
v 0.01789030 0.01466810 -0.03444370
v 0.01662500 0.01426100 -0.03444370
v -0.01156250 0.00686937 -0.02744660
v -0.01189350 0.00708531 -0.02618780
v -0.01223090 0.00733666 -0.01118970
v 0.03847940 0.01265380 -0.01118970
v 0.03941380 0.01220420 -0.01118970
v 0.04043900 0.01332640 -0.02806340
v 0.04043900 0.01350340 -0.02993910
v 0.04033520 0.01382910 -0.03353550
v 0.04231430 0.01290520 -0.03368800
v 0.04231430 0.01290520 -0.03444370
v 0.01492490 0.01353880 -0.03444370
v -0.01212060 0.00566221 -0.02818860
v -0.01344430 0.00523032 -0.02767880
v -0.01282790 0.00648350 -0.02618780
v 0.01304310 0.01265740 -0.03444370
v 0.01266030 0.01247680 -0.03444370
v -0.01308740 0.00667820 -0.01118970
v 0.04043900 0.01160950 -0.01118970
v 0.04337840 0.01232810 -0.03368800
v 0.04276850 0.01268570 -0.03444370
v -0.01267210 0.00438778 -0.02892840
v 0.01182970 0.01199540 -0.03444370
v -0.01387900 0.00366561 -0.02804520
v -0.01489780 0.00294344 -0.02716430
v -0.01366490 0.00554538 -0.02618780
v -0.01369740 0.00576487 -0.01118970
v 0.04187300 0.01071390 -0.01118970
v 0.04340440 0.01233880 -0.03444370
v 0.04431930 0.01163430 -0.03368800
v 0.04485790 0.01131210 -0.03444370
v 0.04434530 0.01168740 -0.03444370
v -0.00570960 0.00506393 -0.03099750
v -0.00602755 0.00380721 -0.03113410
v -0.01306790 0.00313814 -0.02903770
v 0.01113540 0.01152810 -0.03444370
v 0.00945480 0.01039530 -0.03444370
v 0.00922770 0.01018640 -0.03444370
v 0.00881890 0.00976868 -0.03444370
v 0.00855286 0.00948193 -0.03444370
v 0.00759900 0.00845178 -0.03444370
v 0.00697607 0.00769420 -0.03444370
v -0.01411910 0.00193098 -0.02828880
v -0.01502110 0.00193098 -0.02735100
v -0.01518330 0.00193098 -0.02618780
v -0.01491080 0.00296822 -0.02618780
v -0.01459930 0.00390633 -0.02618780
v -0.01452140 0.00394173 -0.01118970
v 0.04280740 0.01001290 -0.01118970
v 0.04555220 0.01074930 -0.03444370
v 0.00560044 0.00555954 -0.03444370
v -0.00655315 0.00185310 -0.03117510
v 0.00477635 0.00323726 -0.03444370
v -0.01318470 0.00193098 -0.02909230
v -0.01421000 0.00005474 -0.02847320
v -0.01513790 0.00005474 -0.02753540
v -0.01544930 0.00005474 -0.02618780
v -0.01502760 0.00193098 -0.01118970
v -0.01486530 0.00262837 -0.01118970
v 0.04389110 0.00907483 -0.01118970
v 0.04482540 0.00813317 -0.01118970
v 0.04648660 0.00977576 -0.03444370
v -0.00745510 -0.00249410 -0.03093600
v -0.01326910 0.00005474 -0.02912870
v 0.00447138 0.00193098 -0.03444370
v 0.00441947 0.00166193 -0.03444370
v 0.00427023 -0.00007978 -0.03444370
v 0.00419236 -0.00181087 -0.03444370
v -0.01513790 -0.00182149 -0.02751490
v -0.01318470 -0.00139314 -0.02908550
v -0.01386610 -0.00193477 -0.02855060
v -0.01546880 -0.00182149 -0.02618780
v -0.01525470 0.00005474 -0.01118970
v -0.01509890 0.00136811 -0.01118970
v 0.04558460 0.00719505 -0.01118970
v 0.04726520 0.00883764 -0.03444370
v 0.04680450 0.00939697 -0.03444370
v -0.00745510 -0.00306051 -0.03093600
v 0.00422480 -0.00368710 -0.03444370
v -0.01504050 -0.00324460 -0.02736010
v -0.01276950 -0.00263924 -0.02898080
v -0.01409970 -0.00380039 -0.02793820
v -0.00653368 -0.00369064 -0.03117280
v -0.00593671 -0.00556688 -0.03104990
v -0.01519630 -0.00380039 -0.02628110
v -0.01513140 -0.00182149 -0.01118970
v -0.01524170 -0.00022846 -0.01118970
v 0.04655150 0.00571885 -0.01118970
v 0.04814120 0.00752428 -0.03444370
v 0.00460765 -0.00556688 -0.03444370
v -0.01361300 -0.00556688 -0.02767880
v -0.01482640 -0.00449424 -0.02696860
v -0.01206870 -0.00556688 -0.02842760
v -0.00561227 -0.00664660 -0.03092920
v 0.00521760 -0.00725549 -0.03444370
v 0.00561990 -0.00809094 -0.03444370
v 0.00623634 -0.00932996 -0.03444370
v 0.00643750 -0.00965919 -0.03444370
v 0.00714478 -0.01080970 -0.03444370
v -0.01500810 -0.00489426 -0.02494040
v -0.01500810 -0.00489426 -0.02571890
v -0.01465770 -0.00384287 -0.01118970
v 0.04658390 0.00566221 -0.01118970
v 0.04879010 0.00644810 -0.03444370
v -0.01324310 -0.00672094 -0.02734870
v -0.01450200 -0.00553856 -0.02628110
v 0.00801428 -0.01192480 -0.03444370
v 0.00885134 -0.01282400 -0.03444370
v 0.01003880 -0.01390730 -0.03444370
v -0.01350920 -0.00701122 -0.02618780
v -0.01347020 -0.00703954 -0.02431220
v -0.01323670 -0.00673510 -0.01118970
v -0.01394390 -0.00557396 -0.01118970
v -0.01404130 -0.00534385 -0.01118970
v -0.01463820 -0.00389243 -0.01118970
v 0.04748590 0.00377181 -0.01118970
v 0.04921190 0.00553122 -0.03444370
v -0.00388624 -0.01043090 -0.02919020
v -0.01208810 -0.00795288 -0.02623110
v 0.01065520 -0.01439930 -0.03444370
v 0.01251100 -0.01564900 -0.03444370
v 0.01307560 -0.01598170 -0.03444370
v 0.01419170 -0.01657650 -0.03444370
v -0.01147170 -0.00855115 -0.02563470
v -0.01246450 -0.00797766 -0.02431220
v -0.01180910 -0.00784314 -0.01118970
v 0.04750530 0.00371163 -0.01118970
v 0.04984780 0.00380721 -0.03444370
v 0.01590470 -0.01741550 -0.03444370
v -0.00192012 -0.01219740 -0.02726450
v -0.00210830 -0.01230010 -0.02618780
v -0.01153010 -0.00859009 -0.02431220
v 0.01628110 -0.01758540 -0.03444370
v -0.01100450 -0.00832813 -0.01171320
v -0.01038160 -0.00856177 -0.01118970
v 0.04805690 0.00193098 -0.01118970
v 0.05032150 0.00196284 -0.03444370
v 0.01683910 -0.01782610 -0.03444370
v 0.01793570 -0.01823320 -0.03444370
v -0.00081702 -0.01273200 -0.02618780
v -0.00081702 -0.01284170 -0.02431220
v -0.00210830 -0.01233190 -0.02431220
v -0.00016814 -0.01227180 -0.01118970
v 0.04842030 0.00028839 -0.01118970
v 0.05062000 0.00029901 -0.03444370
v 0.01981100 -0.01882090 -0.03444370
v 0.00105825 -0.01341520 -0.02431220
v 0.00105825 -0.01270360 -0.01118970
v 0.04843320 0.00019989 -0.01118970
v 0.05066540 -0.00003730 -0.03444370
v 0.01981100 -0.01882800 -0.03368800
v 0.02093360 -0.01908990 -0.03444370
v 0.02168630 -0.01927750 -0.03368800
v 0.01981100 -0.01880320 -0.03181240
v 0.00260260 -0.01384350 -0.02431220
v 0.00366676 -0.01405950 -0.02291230
v 0.01231640 -0.01647030 -0.02431220
v 0.01218010 -0.01567730 -0.01118970
v 0.04849810 -0.00182149 -0.01118970
v 0.05082110 -0.00182149 -0.03444370
v 0.05075620 -0.00082319 -0.03444370
v 0.05073680 -0.00062495 -0.03444370
v 0.02168630 -0.01926690 -0.03444370
v 0.02314620 -0.01955370 -0.03368800
v 0.02168630 -0.01923510 -0.03181240
v 0.01697540 -0.01776590 -0.02518170
v 0.00354348 -0.01409840 -0.02431220
v 0.01311450 -0.01591800 -0.01118970
v 0.04834890 -0.00364816 -0.01118970
v 0.05081460 -0.00314547 -0.03444370
v 0.02255580 -0.01942980 -0.03444370
v 0.02408710 -0.01969880 -0.03368800
v 0.02361340 -0.01953950 -0.03173270
v 0.02319170 -0.01954660 -0.03444370
v 0.02356800 -0.01960680 -0.03444370
v 0.02168630 -0.01866870 -0.02431220
v 0.01793570 -0.01702610 -0.01118970
v 0.01606690 -0.01664370 -0.01118970
v 0.01419170 -0.01619060 -0.01118970
v 0.04796600 -0.00556688 -0.01118970
v 0.05045130 -0.00556688 -0.03444370
v 0.05058100 -0.00473496 -0.03444370
v 0.05066540 -0.00417917 -0.03444370
v 0.02543680 -0.01984750 -0.03444370
v 0.02543680 -0.01983690 -0.03368800
v 0.02427530 -0.01966340 -0.03230630
v 0.02412610 -0.01969170 -0.03444370
v 0.02465810 -0.01962090 -0.03105440
v 0.02245840 -0.01778360 -0.01118970
v 0.02082320 -0.01774820 -0.01416250
v 0.04943900 -0.00936891 -0.03444370
v 0.05008140 -0.00739355 -0.03444370
v 0.04731070 -0.00722009 -0.01118970
v 0.02731210 -0.01998560 -0.03444370
v 0.02534600 -0.01971650 -0.03173270
v 0.02731210 -0.01994310 -0.03368800
v 0.02590400 -0.01966700 -0.03067200
v 0.02731210 -0.01938370 -0.02618780
v 0.02543680 -0.01816950 -0.01306080
v 0.02339280 -0.01787920 -0.01118970
v 0.04897180 -0.01044150 -0.03444370
v 0.04726520 -0.00733337 -0.01118970
v 0.02918740 -0.02000330 -0.03444370
v 0.02918740 -0.01939790 -0.02618780
v 0.02731210 -0.01872530 -0.01868760
v 0.02918740 -0.01908640 -0.02243890
v 0.02918740 -0.01892350 -0.02056320
v 0.02731210 -0.01855890 -0.01681200
v 0.02543680 -0.01799600 -0.01118970
v 0.04853060 -0.01133360 -0.03444370
v 0.04686940 -0.00809448 -0.01118970
v 0.03244470 -0.01979440 -0.03444370
v 0.03391770 -0.01963860 -0.03269330
v 0.03106260 -0.01946160 -0.02806340
v 0.03106260 -0.01930940 -0.02618780
v 0.03106260 -0.01915360 -0.02431220
v 0.03106260 -0.01897660 -0.02243890
v 0.02918740 -0.01853770 -0.01681200
v 0.02731210 -0.01819430 -0.01306080
v 0.02731210 -0.01838190 -0.01493640
v 0.02731210 -0.01798190 -0.01118970
v 0.04793360 -0.01233190 -0.03444370
v 0.04622700 -0.00920606 -0.01118970
v 0.03473530 -0.01958910 -0.03444370
v 0.03663000 -0.01935190 -0.03444370
v 0.03465100 -0.01946870 -0.03196490
v 0.03481320 -0.01926340 -0.02993910
v 0.03293790 -0.01914660 -0.02618780
v 0.03293790 -0.01932000 -0.02806340
v 0.03106260 -0.01837840 -0.01681200
v 0.03293790 -0.01896250 -0.02431220
v 0.02918740 -0.01832530 -0.01493640
v 0.02918740 -0.01809520 -0.01306080
v 0.02912250 -0.01786860 -0.01118970
v 0.04753130 -0.01295140 -0.03444370
v 0.04534460 -0.01048760 -0.01118970
v 0.03778510 -0.01904390 -0.03444370
v 0.03856370 -0.01878190 -0.03368800
v 0.03668840 -0.01927750 -0.03368800
v 0.03481320 -0.01888110 -0.02618780
v 0.03668840 -0.01909700 -0.03181240
v 0.03106260 -0.01814830 -0.01493640
v 0.03293790 -0.01812350 -0.01681200
v 0.03481320 -0.01867570 -0.02431220
v 0.03051110 -0.01780130 -0.01176330
v 0.02922630 -0.01785800 -0.01118970
v 0.04712250 -0.01352850 -0.03444370
v 0.04446860 -0.01142570 -0.01118970
v 0.04687590 -0.01385420 -0.03444370
v 0.03856370 -0.01883150 -0.03444370
v 0.03856370 -0.01860490 -0.03181240
v 0.03976420 -0.01840670 -0.03444370
v 0.04059470 -0.01805980 -0.03366300
v 0.04021190 -0.01803850 -0.03181240
v 0.03668840 -0.01890580 -0.02993910
v 0.03176340 -0.01773050 -0.01233690
v 0.03110800 -0.01789340 -0.01300160
v 0.03228900 -0.01781200 -0.01358660
v 0.03399560 -0.01779070 -0.01566020
v 0.03430700 -0.01786510 -0.01681200
v 0.03668840 -0.01845980 -0.02618780
v 0.03107560 -0.01765970 -0.01118970
v 0.04353420 -0.01236730 -0.01118970
v 0.04654500 -0.01419760 -0.03444370
v 0.03856370 -0.01837480 -0.02993910
v 0.04134740 -0.01782260 -0.03444370
v 0.04143830 -0.01778720 -0.03427070
v 0.04132150 -0.01773760 -0.03302110
v 0.04114630 -0.01765620 -0.03181240
v 0.03988100 -0.01792170 -0.02993910
v 0.03293790 -0.01737650 -0.01118970
v 0.03112750 -0.01765270 -0.01118970
v 0.03524790 -0.01762080 -0.01681200
v 0.03481320 -0.01693760 -0.01118970
v 0.03819390 -0.01798900 -0.02618780
v 0.04236620 -0.01330550 -0.01118970
v 0.04496170 -0.01574100 -0.03444370
v 0.04537050 -0.01534450 -0.03444370
v 0.04143830 -0.01778720 -0.03444370
v 0.04152260 -0.01774470 -0.03444370
v 0.04216500 -0.01739420 -0.03444370
v 0.04216500 -0.01736950 -0.03366300
v 0.04231430 -0.01701540 -0.03181240
v 0.04043900 -0.01461880 -0.01118970
v 0.03872590 -0.01552150 -0.01118970
v 0.03778510 -0.01596050 -0.01118970
v 0.03668840 -0.01634640 -0.01118970
v 0.04143180 -0.01404180 -0.01118970
v 0.04456590 -0.01604550 -0.03444370
v 0.04407270 -0.01634280 -0.03444370
v 0.04391050 -0.01634990 -0.03368800
f 211 223 224
f 210 223 211
f 207 221 222
f 207 208 217
f 207 222 209
f 212 225 226
f 207 220 221
f 208 213 217
f 212 226 217
f 212 228 229
f 212 216 227
f 212 227 228
f 212 229 230
f 212 230 225
f 217 226 231
f 217 231 232
f 217 232 218
f 219 232 233
f 218 232 219
f 212 217 213
f 207 219 220
f 198 212 199
f 207 217 218
f 190 197 202
f 190 202 203
f 190 203 204
f 190 204 191
f 191 204 205
f 191 205 206
f 191 206 201
f 192 207 193
f 192 199 208
f 192 208 207
f 193 207 209
f 195 210 211
f 195 211 196
f 198 200 212
f 199 213 208
f 199 212 213
f 200 201 212
f 201 206 214
f 201 214 215
f 201 215 216
f 201 216 212
f 207 218 219
f 223 234 235
f 256 269 257
f 225 230 226
f 246 253 248
f 246 248 247
f 248 254 255
f 248 255 250
f 248 253 254
f 251 256 252
f 252 256 257
f 253 258 254
f 253 259 260
f 253 260 258
f 254 258 261
f 254 261 262
f 254 262 255
f 255 262 263
f 255 263 264
f 255 264 265
f 256 266 267
f 256 267 268
f 256 268 269
f 258 260 261
f 259 270 260
f 244 251 252
f 223 235 224
f 243 251 244
f 242 249 248
f 226 230 236
f 226 236 231
f 231 237 238
f 231 238 239
f 231 239 232
f 231 236 240
f 231 240 237
f 232 239 233
f 233 239 241
f 233 241 242
f 234 243 235
f 235 243 244
f 237 240 245
f 237 245 246
f 237 246 238
f 238 247 248
f 238 248 249
f 238 249 239
f 238 246 247
f 239 249 242
f 239 242 241
f 242 248 250
f 188 201 200
f 157 167 168
f 188 198 189
f 132 152 153
f 132 153 154
f 132 154 133
f 133 154 134
f 134 154 155
f 135 156 137
f 137 156 138
f 138 156 157
f 140 149 158
f 140 158 141
f 141 159 142
f 141 158 160
f 141 160 159
f 142 161 162
f 142 162 150
f 142 159 161
f 150 162 163
f 150 163 151
f 151 163 164
f 151 164 152
f 152 164 165
f 132 151 152
f 152 165 166
f 131 151 132
f 131 142 150
f 122 133 125
f 121 129 131
f 260 270 271
f 125 133 134
f 126 135 127
f 127 136 128
f 127 135 137
f 127 137 138
f 127 138 139
f 127 139 136
f 129 140 141
f 129 141 142
f 129 142 131
f 129 130 143
f 129 143 144
f 129 144 145
f 129 145 146
f 129 146 147
f 129 147 148
f 129 148 149
f 129 149 140
f 131 150 151
f 188 191 201
f 152 166 155
f 153 155 154
f 175 186 185
f 176 178 187
f 176 187 179
f 177 188 189
f 177 189 178
f 177 185 190
f 177 190 191
f 177 191 188
f 178 189 187
f 179 187 192
f 179 192 193
f 179 193 194
f 179 194 180
f 182 195 196
f 182 196 183
f 185 186 197
f 185 197 190
f 187 189 198
f 187 198 199
f 187 199 192
f 188 200 198
f 171 185 177
f 152 155 153
f 170 175 185
f 168 184 169
f 156 167 157
f 157 168 169
f 159 170 171
f 159 171 161
f 159 160 172
f 159 172 173
f 159 173 174
f 159 174 175
f 159 175 170
f 161 171 162
f 162 176 163
f 162 171 177
f 162 177 178
f 162 178 176
f 163 176 179
f 163 179 164
f 164 179 180
f 164 180 181
f 164 181 165
f 168 182 183
f 168 183 184
f 170 185 171
f 260 271 272
f 325 339 326
f 261 272 273
f 345 359 360
f 345 360 361
f 345 361 358
f 346 358 348
f 347 348 362
f 347 362 351
f 348 358 362
f 349 350 363
f 349 363 364
f 345 357 359
f 349 364 352
f 350 351 366
f 350 366 365
f 351 367 366
f 351 362 368
f 351 368 367
f 352 364 363
f 352 363 369
f 352 369 353
f 355 370 371
f 350 365 363
f 345 358 346
f 344 357 345
f 343 356 354
f 329 330 342
f 330 343 342
f 332 344 345
f 332 345 346
f 332 346 333
f 333 346 334
f 334 347 338
f 334 338 335
f 334 346 348
f 334 348 347
f 337 349 340
f 337 340 339
f 337 338 350
f 337 350 349
f 338 347 351
f 338 351 350
f 340 349 341
f 341 349 352
f 341 352 353
f 342 343 354
f 343 355 356
f 355 371 356
f 358 372 368
f 358 368 362
f 358 361 372
f 374 389 375
f 375 389 376
f 376 389 390
f 376 390 391
f 376 391 392
f 376 392 393
f 376 393 377
f 377 393 382
f 380 382 394
f 380 394 381
f 382 393 394
f 383 395 384
f 384 395 396
f 388 397 389
f 389 397 398
f 389 398 390
f 390 395 391
f 390 398 395
f 395 398 396
f 396 398 397
f 121 133 122
f 374 388 389
f 328 340 341
f 374 387 388
f 373 386 374
f 359 373 374
f 359 374 360
f 360 374 375
f 360 375 361
f 361 375 376
f 361 376 377
f 361 377 372
f 363 365 378
f 363 378 379
f 363 379 369
f 365 366 378
f 366 367 380
f 366 380 381
f 366 381 378
f 367 368 380
f 368 372 382
f 368 382 380
f 370 383 384
f 370 384 385
f 370 385 371
f 372 377 382
f 374 386 387
f 328 339 340
f 326 339 328
f 325 337 339
f 279 291 292
f 279 292 293
f 279 282 294
f 279 294 291
f 280 293 295
f 280 295 296
f 280 296 283
f 283 297 284
f 283 296 297
f 284 297 296
f 287 298 299
f 287 299 288
f 287 300 298
f 291 301 292
f 292 302 293
f 292 301 303
f 292 303 302
f 293 302 295
f 295 302 304
f 295 304 305
f 295 305 306
f 276 290 277
f 295 306 307
f 276 289 290
f 276 287 288
f 261 273 274
f 261 274 262
f 262 274 263
f 263 274 264
f 264 273 265
f 264 274 273
f 265 273 275
f 266 276 277
f 266 277 267
f 270 278 271
f 271 279 280
f 271 280 272
f 271 278 281
f 271 281 282
f 271 282 279
f 272 280 283
f 272 283 284
f 272 284 285
f 272 285 273
f 273 285 286
f 273 286 275
f 276 288 289
f 260 272 261
f 295 307 296
f 298 309 308
f 314 326 327
f 314 327 315
f 315 327 316
f 316 327 326
f 316 326 328
f 317 318 330
f 317 330 329
f 319 331 320
f 320 331 332
f 320 332 333
f 320 333 334
f 320 334 335
f 320 335 336
f 320 336 323
f 320 323 322
f 320 322 321
f 323 336 335
f 323 335 324
f 324 337 325
f 324 335 338
f 324 338 337
f 314 325 326
f 298 300 309
f 314 324 325
f 313 323 314
f 301 310 303
f 302 303 304
f 303 305 304
f 303 310 311
f 303 311 305
f 305 312 306
f 305 311 313
f 305 313 314
f 305 314 312
f 306 312 315
f 306 315 316
f 306 316 307
f 308 309 317
f 309 318 317
f 310 319 320
f 310 320 321
f 310 321 311
f 311 321 322
f 311 322 323
f 311 323 313
f 312 314 315
f 314 323 324
f 121 132 133
f 279 293 280
f 120 130 129
f 6 15 7
f 7 15 16
f 7 16 17
f 7 17 18
f 7 18 8
f 8 19 20
f 8 20 21
f 8 21 9
f 8 18 22
f 6 14 15
f 8 22 23
f 10 24 11
f 11 24 25
f 11 25 26
f 11 26 12
f 12 26 27
f 12 27 28
f 12 28 13
f 13 28 14
f 14 29 30
f 8 23 19
f 6 13 14
f 6 12 13
f 5 12 6
f 2 145 144
f 2 144 143
f 2 143 130
f 2 130 124
f 2 124 123
f 2 123 119
f 2 119 108
f 2 108 107
f 2 107 96
f 2 96 79
f 2 79 78
f 2 78 59
f 2 59 58
f 2 58 42
f 2 42 24
f 2 24 10
f 2 10 4
f 2 4 3
f 4 10 5
f 5 10 11
f 5 11 12
f 14 30 15
f 14 28 29
f 15 30 31
f 15 31 16
f 28 46 47
f 28 47 29
f 29 48 30
f 29 47 48
f 30 49 31
f 30 48 49
f 31 49 50
f 31 50 51
f 31 51 32
f 32 51 33
f 33 51 52
f 33 52 53
f 33 53 54
f 33 54 40
f 33 40 34
f 36 41 37
f 37 41 55
f 37 55 56
f 37 56 57
f 37 57 39
f 37 39 38
f 27 46 28
f 2 146 145
f 27 45 46
f 26 44 45
f 16 31 17
f 17 31 32
f 17 32 33
f 17 33 34
f 17 34 22
f 17 22 18
f 19 23 20
f 20 23 35
f 20 35 36
f 20 36 37
f 20 37 38
f 20 38 39
f 22 34 40
f 22 40 41
f 22 41 23
f 23 41 36
f 23 36 35
f 24 42 25
f 25 43 44
f 25 44 26
f 25 42 43
f 26 45 27
f 2 147 146
f 2 148 147
f 2 149 148
f 2 183 196
f 2 196 211
f 2 211 224
f 2 224 235
f 2 235 244
f 2 244 252
f 2 252 257
f 2 257 269
f 2 269 268
f 2 268 267
f 2 267 277
f 2 277 290
f 2 290 289
f 2 289 288
f 2 288 299
f 2 299 298
f 2 298 308
f 2 308 317
f 2 317 329
f 2 329 342
f 2 342 354
f 2 184 183
f 2 354 356
f 2 169 184
f 2 138 157
f 121 131 132
f 1 2 3
f 1 3 4
f 1 4 5
f 1 5 6
f 1 6 7
f 1 7 8
f 1 8 9
f 1 9 2
f 2 9 21
f 2 21 20
f 2 20 39
f 2 39 57
f 2 57 77
f 2 77 95
f 2 95 106
f 2 106 118
f 2 118 128
f 2 128 136
f 2 136 139
f 2 139 138
f 2 157 169
f 40 54 55
f 2 356 371
f 2 385 384
f 2 236 230
f 2 230 229
f 2 229 228
f 2 228 227
f 2 227 216
f 2 216 215
f 2 215 214
f 2 214 206
f 2 206 205
f 2 205 204
f 2 204 203
f 2 203 202
f 2 202 197
f 2 197 186
f 2 186 175
f 2 175 174
f 2 174 173
f 2 173 172
f 2 172 160
f 2 160 158
f 2 158 149
f 2 240 236
f 2 371 385
f 2 245 240
f 2 253 246
f 2 384 396
f 2 396 397
f 2 397 388
f 2 388 387
f 2 387 386
f 2 386 373
f 2 373 359
f 2 359 357
f 2 357 344
f 2 344 332
f 2 332 331
f 2 331 319
f 2 319 310
f 2 310 301
f 2 301 291
f 2 291 294
f 2 294 282
f 2 282 281
f 2 281 278
f 2 278 270
f 2 259 253
f 2 246 245
f 40 55 41
f 2 270 259
f 43 59 60
f 70 87 71
f 72 88 73
f 72 87 88
f 73 88 89
f 73 90 91
f 73 91 74
f 74 91 92
f 74 92 93
f 74 93 75
f 70 86 87
f 75 93 76
f 76 94 95
f 76 95 77
f 79 96 97
f 79 97 80
f 80 97 98
f 80 98 99
f 80 99 82
f 80 82 81
f 82 100 85
f 76 93 94
f 69 86 70
f 61 85 62
f 61 84 85
f 51 71 52
f 52 71 53
f 53 71 87
f 53 87 72
f 53 72 73
f 53 73 74
f 53 74 75
f 53 75 54
f 54 75 55
f 55 75 76
f 55 76 56
f 56 76 77
f 56 77 57
f 59 78 60
f 60 78 79
f 60 79 80
f 60 80 81
f 60 81 82
f 60 82 83
f 60 83 84
f 60 84 61
f 82 85 83
f 82 99 100
f 83 85 84
f 86 101 87
f 105 117 106
f 106 117 118
f 108 119 109
f 109 120 121
f 109 121 122
f 109 122 110
f 109 119 123
f 109 123 124
f 109 124 120
f 110 122 111
f 111 122 125
f 113 126 127
f 113 127 117
f 113 117 114
f 114 117 115
f 115 117 116
f 117 127 128
f 117 128 118
f 120 129 121
f 42 58 43
f 120 124 130
f 105 116 117
f 51 70 71
f 103 112 113
f 103 116 105
f 87 101 88
f 88 101 89
f 90 102 91
f 91 102 103
f 91 103 104
f 91 104 92
f 92 104 93
f 93 104 94
f 94 104 105
f 94 105 95
f 96 107 97
f 97 108 109
f 97 109 110
f 97 110 98
f 97 107 108
f 98 110 99
f 99 110 111
f 102 112 103
f 103 113 114
f 103 114 115
f 103 115 116
f 103 105 104
f 50 70 51
f 95 105 106
f 49 69 50
f 45 166 165
f 45 165 181
f 45 181 180
f 45 180 194
f 45 194 193
f 45 193 209
f 45 209 222
f 45 222 221
f 45 221 220
f 45 220 219
f 45 219 233
f 45 233 242
f 45 242 250
f 45 250 255
f 45 255 265
f 45 265 275
f 45 275 286
f 45 286 285
f 45 285 284
f 45 284 296
f 45 296 307
f 45 155 166
f 45 307 316
f 45 134 155
f 45 111 125
f 43 60 61
f 43 61 44
f 50 69 70
f 43 58 59
f 44 61 62
f 44 62 63
f 44 63 64
f 44 64 65
f 44 65 66
f 44 66 67
f 44 67 68
f 44 68 45
f 45 68 67
f 45 67 66
f 45 66 65
f 45 65 64
f 45 64 63
f 45 63 62
f 45 62 85
f 45 85 100
f 45 99 111
f 45 125 134
f 45 316 328
f 45 100 99
f 45 341 353
f 45 243 234
f 45 234 223
f 45 223 210
f 45 210 195
f 45 195 182
f 45 182 168
f 45 168 167
f 45 167 156
f 45 156 135
f 45 135 126
f 45 126 113
f 45 112 102
f 45 102 90
f 45 90 73
f 45 73 89
f 45 89 101
f 45 101 86
f 45 86 69
f 45 69 49
f 45 328 341
f 45 49 48
f 45 251 243
f 45 256 251
f 45 113 112
f 45 47 46
f 45 353 369
f 45 369 379
f 45 266 256
f 45 379 378
f 45 378 381
f 45 381 394
f 45 394 393
f 45 393 392
f 45 392 391
f 45 391 395
f 45 395 383
f 45 48 47
f 45 276 266
f 45 370 355
f 45 355 343
f 45 343 330
f 45 330 318
f 45 318 309
f 45 309 300
f 45 383 370
f 45 300 287
f 45 287 276

