# https://github.com/mikedh/trimesh

o convex_0
v 0.00293636 0.02016810 0.00381773
v 0.00481368 0.01997600 0.00205864
v 0.00293636 0.02000350 0.00214328
v 0.00142587 0.01992510 0.00248369
v 0.00128561 0.01996820 0.00381773
v 0.00162007 0.01986630 0.00491807
v 0.00293636 0.01990940 0.00499536
v 0.01160010 0.01982710 0.00491255
v 0.01044560 0.01998780 0.00381773
v 0.01044560 0.01990550 0.00235121
v 0.00481368 0.01968610 0.00112021
v 0.00669100 0.01994080 0.00209360
v 0.00856832 0.01965470 0.00121406
v 0.00669100 0.01967430 0.00115518
v 0.00293636 0.01958030 0.00120486
v 0.00105904 0.01175080 -0.01118970
v -0.02072440 0.01043810 -0.00280276
v -0.02138250 0.01073980 -0.00184594
v -0.02268800 0.01053220 -0.00124977
v -0.02208380 0.01198200 0.00760638
v 0.00197612 0.01789130 0.00664588
v 0.00293636 0.01888670 0.00593378
v -0.02060570 0.01242490 0.00760638
v -0.01956990 0.01270310 0.00760638
v -0.01923550 0.01278540 0.00760638
v -0.01783290 0.01307530 0.00760638
v 0.00481368 0.01895720 0.00591906
v 0.01182670 0.01988590 0.00381773
v 0.01044560 0.01887880 0.00584914
v 0.01143820 0.01793440 0.00669004
v 0.06290270 0.01298520 0.00760638
v 0.06294590 0.01298130 0.00760638
v 0.06481240 0.01275400 0.00760638
v 0.01176190 0.01985460 0.00260697
v 0.00856832 0.01990940 0.00215064
v 0.02730920 0.01532860 -0.01118970
v 0.02543180 0.01541480 -0.01118970
v 0.02356530 0.01537170 -0.01118970
v 0.02168800 0.01524230 -0.01118970
v 0.00262347 0.01212700 -0.01118970
v 0.01982150 0.01509740 -0.01118970
v 0.01794410 0.01490530 -0.01118970
v 0.01606680 0.01463100 -0.01118970
v 0.01599130 0.01461930 -0.01118970
v 0.01379030 0.01425090 -0.01118970
v 0.01314290 0.01414120 -0.01118970
v 0.01257110 0.01403930 -0.01118970
v 0.01226900 0.01398450 -0.01118970
v 0.01044560 0.01365140 -0.01118970
v 0.00856832 0.01329480 -0.01118970
v -0.01050700 0.00829462 -0.01118970
v -0.02197590 0.01015600 -0.00249916
v -0.02342170 0.00953682 -0.00196370
v -0.02464080 0.00891768 -0.00143009
v -0.03075830 0.00755792 0.00760638
v -0.02348640 0.01141380 0.00760638
v 0.00293636 0.01795010 0.00668636
v 0.00481368 0.01802060 0.00674524
v -0.01758470 0.01311060 0.00760638
v 0.00669100 0.01800500 0.00674340
v 0.01982150 0.01519140 0.00760638
v 0.06106860 0.01312240 0.00760638
v 0.06659270 0.01240130 0.00760638
v 0.06440250 0.01235820 0.00194272
v 0.06294590 0.01260510 0.00194272
v 0.06406800 0.01228770 0.00086629
v 0.02918650 0.01516790 -0.01118970
v -0.01063650 0.00822409 -0.01118970
v -0.02415530 0.00839259 -0.00267948
v -0.01216850 0.00736983 -0.01118970
v -0.01222250 0.00733456 -0.01118970
v -0.01228720 0.00729145 -0.01118970
v -0.02527740 0.00765197 -0.00197474
v -0.02632400 0.00691135 -0.00127001
v -0.03077990 0.00751873 0.00760638
v 0.01057510 0.01512090 0.00760638
v 0.01974590 0.01519140 0.00760638
v 0.06534110 0.01214660 0.00194272
v 0.06673290 0.01236220 0.00760638
v 0.06474770 0.01189190 0.00017075
v 0.03293030 0.01453700 -0.01118970
v 0.03106380 0.01490140 -0.01118970
v -0.02228880 0.00451315 -0.00637982
v -0.02592480 0.00630004 -0.00251940
v -0.01308560 0.00667623 -0.01118970
v -0.02661530 0.00567698 -0.00185882
v -0.02805020 0.00302407 -0.00098112
v -0.03112520 0.00598263 0.00760638
v 0.06668980 0.01169600 0.00194272
v 0.06825420 0.01182530 0.00760638
v 0.06668980 0.01120220 0.00006587
v 0.06668980 0.01059880 -0.00117800
v 0.06466140 0.01083780 -0.00186434
v 0.03425740 0.01423530 -0.01118970
v -0.02248300 0.00325919 -0.00656750
v -0.02625920 0.00505000 -0.00284325
v -0.01366820 0.00580629 -0.01118970
v -0.01368980 0.00576319 -0.01118970
v -0.01427240 0.00448572 -0.01118970
v -0.01453140 0.00391752 -0.01118970
v -0.02742450 0.00370983 -0.00168770
v -0.02755390 0.00193077 -0.00209251
v -0.02812580 0.00193077 -0.00115776
v -0.03116830 0.00568090 0.00760638
v 0.06794130 0.01057920 0.00006587
v 0.07040120 0.01085740 0.00760638
v 0.06836210 0.01085350 0.00194272
v 0.06762840 0.01037150 -0.00087440
v 0.06668980 0.00975627 -0.00211459
v 0.06517930 0.01014030 -0.00252676
v 0.03519610 0.01396100 -0.01118970
v -0.02262330 0.00193077 -0.00665951
v -0.02644260 0.00380388 -0.00296101
v -0.01486580 0.00262829 -0.01118970
v -0.01502770 0.00193077 -0.01118970
v -0.02661530 0.00193077 -0.00304381
v -0.02755390 0.00005767 -0.00216243
v -0.02815810 0.00005767 -0.00122768
v -0.03044540 0.00005767 0.00760638
v -0.02808260 -0.00134520 -0.00107496
v 0.06930070 0.01017560 0.00194272
v 0.06888000 0.00978370 0.00006587
v 0.07234330 0.00950548 0.00760638
v 0.06953810 0.00853758 -0.00091856
v 0.06827580 0.00916064 -0.00152025
v 0.06767160 0.00852974 -0.00277148
v 0.06668980 0.00881580 -0.00297757
v 0.03941470 0.01220540 -0.01118970
v 0.03847600 0.01265600 -0.01118970
v 0.03668500 0.01343190 -0.01118970
v -0.02264480 0.00005767 -0.00666871
v -0.01510320 0.00137041 -0.01118970
v -0.01525420 0.00005767 -0.01118970
v -0.02642110 -0.00181543 -0.00291501
v -0.02747840 -0.00190948 -0.00174290
v -0.02251540 -0.00138438 -0.00658222
v -0.03034830 -0.00040081 0.00760638
v -0.02678790 -0.00365327 -0.00191954
v -0.02646420 -0.00556947 -0.00130681
v -0.02797470 -0.00259524 -0.00039230
v 0.07235410 0.00949764 0.00760638
v 0.07481400 0.00749130 0.00760638
v 0.06978630 0.00884715 0.00006587
v 0.06982940 0.00755792 -0.00128841
v 0.06939790 0.00637449 -0.00262796
v 0.06898790 0.00755792 -0.00222315
v 0.07652950 0.00565347 0.00760638
v 0.07774870 0.00382347 0.00760638
v 0.06668980 0.00755792 -0.00369703
v 0.06804920 0.00755792 -0.00303461
v 0.04187460 0.01071240 -0.01118970
v 0.04043960 0.01160980 -0.01118970
v -0.01524340 -0.00022447 -0.01118970
v -0.01512480 -0.00181543 -0.01118970
v -0.02622690 -0.00300669 -0.00280829
v -0.02232120 -0.00263442 -0.00646446
v -0.01470400 -0.00361800 -0.01118970
v -0.01463930 -0.00389230 -0.01118970
v -0.03002470 -0.00184286 0.00760638
v -0.02586000 -0.00425673 -0.00262060
v -0.02618370 -0.00656872 -0.00094984
v -0.02772660 -0.00352003 0.00016707
v -0.02944200 -0.00369245 0.00760638
v 0.07606560 0.00617856 0.00760638
v 0.07114570 0.00611195 -0.00044567
v 0.07142620 0.00486191 -0.00094984
v 0.06966760 0.00512445 -0.00288189
v 0.06868580 0.00572008 -0.00335846
v 0.07794290 0.00340026 0.00760638
v 0.06672210 0.00580629 -0.00438705
v 0.06563240 0.00651948 -0.00459497
v 0.04280250 0.01001490 -0.01118970
v -0.02522350 -0.00567136 -0.00231883
v -0.01403510 -0.00534611 -0.01118970
v -0.01394870 -0.00556947 -0.01118420
v -0.01323670 -0.00673722 -0.01118970
v -0.02504000 -0.00729367 -0.00131233
v -0.02431720 -0.00843007 -0.00094064
v -0.02835230 -0.00561650 0.00760638
v 0.07853630 0.00193077 0.00760638
v 0.07156650 0.00380388 -0.00115040
v 0.07083280 0.00380388 -0.00208515
v 0.06989420 0.00380388 -0.00310637
v 0.06849160 0.00380780 -0.00410000
v 0.06781180 0.00318473 -0.00471457
v 0.06672210 0.00380780 -0.00494642
v 0.04558610 0.00719349 -0.01118970
v 0.04482000 0.00813396 -0.01118970
v 0.04389220 0.00907443 -0.01118970
v -0.01393800 -0.00557339 -0.01118970
v -0.01190960 -0.00776390 -0.01118970
v -0.02331380 -0.00875140 -0.00128657
v -0.02067040 -0.01031490 -0.00097192
v -0.02177090 -0.01000930 0.00006587
v -0.02331380 -0.00917853 0.00006587
v -0.02438190 -0.00848885 0.00006587
v -0.01180170 -0.00784619 -0.01118970
v -0.02630240 -0.00754446 0.00760638
v 0.07875210 0.00110003 0.00760638
v 0.07107020 0.00193077 -0.00237956
v 0.07903260 -0.00000503 0.00760638
v 0.07013150 0.00193077 -0.00334190
v 0.06897710 0.00193077 -0.00427848
v 0.06668980 0.00193077 -0.00537883
v 0.06803840 0.00193077 -0.00483786
v 0.04654630 0.00572008 -0.01118970
v -0.01037750 -0.00856330 -0.01118970
v -0.00017093 -0.01227030 -0.01118970
v 0.00105904 -0.01270140 -0.01118970
v -0.00003067 -0.01969610 0.00450774
v -0.02345400 -0.00931176 0.00760638
v -0.02401510 -0.00904137 0.00760638
v -0.02526660 -0.00825373 0.00760638
v 0.07125360 0.00005767 -0.00259668
v 0.07905420 -0.00175665 0.00760638
v 0.07031490 0.00005767 -0.00348726
v 0.06920360 0.00005767 -0.00442385
v 0.06668980 0.00005767 -0.00558124
v 0.04748500 0.00377253 -0.01118970
v 0.04657870 0.00566130 -0.01118970
v 0.06826500 0.00005767 -0.00494642
v 0.01218270 -0.01567950 -0.01118970
v 0.00105904 -0.01971960 0.00437158
v -0.00003067 -0.01969610 0.00493279
v 0.01418950 -0.01619290 -0.01118970
v 0.01606680 -0.01664350 -0.01118970
v 0.01794410 -0.01702360 -0.01118970
v 0.02246480 -0.01778380 -0.01118970
v 0.02340350 -0.01787790 -0.01118970
v 0.02543180 -0.01799540 -0.01118970
v -0.02178170 -0.01002100 0.00760638
v 0.07123200 -0.00181543 -0.00255068
v 0.07876290 -0.00369245 0.00760638
v 0.07100540 -0.00556947 -0.00226547
v 0.07113490 -0.00369245 -0.00241636
v 0.07029340 -0.00181543 -0.00343574
v 0.06905260 -0.00181543 -0.00437233
v 0.06668980 -0.00181543 -0.00546347
v 0.04797050 -0.00556947 -0.01118970
v 0.04834810 -0.00364543 -0.01118970
v 0.04849920 -0.00181543 -0.01118970
v 0.04843440 0.00019874 -0.01118970
v 0.04805680 0.00193077 -0.01118970
v 0.04799210 0.00214238 -0.01118970
v 0.04750660 0.00370983 -0.01118970
v 0.06811390 -0.00181543 -0.00486914
v 0.00838491 -0.01986070 0.00363556
v 0.00856832 -0.01986460 0.00531000
v 0.00105904 -0.01971960 0.00499904
v 0.00105904 -0.01927680 0.00593746
v -0.00034356 -0.01813260 0.00688324
v -0.02084300 -0.01039330 0.00760638
v 0.02730920 -0.01797980 -0.01118970
v 0.07006680 -0.00556947 -0.00324990
v 0.07019620 -0.00369245 -0.00334190
v 0.07823420 -0.00556947 0.00760638
v 0.07170670 -0.00556947 -0.00132889
v 0.07152330 -0.00686262 -0.00107864
v 0.07076810 -0.00747001 -0.00174658
v 0.06975390 -0.00744258 -0.00296101
v 0.06885840 -0.00369245 -0.00428032
v 0.06784420 -0.00510707 -0.00472377
v 0.04729080 -0.00726624 -0.01118970
v 0.01040250 -0.01984110 0.00381957
v 0.01044560 -0.01983720 0.00521064
v 0.06110100 -0.01651030 0.00760638
v 0.00856832 -0.01935520 0.00624659
v 0.00105904 -0.01833640 0.00704333
v -0.01956990 -0.01077340 0.00760638
v 0.02915410 -0.01786610 -0.01118970
v 0.06851310 -0.00566744 -0.00425456
v 0.07128600 -0.00811658 -0.00069959
v 0.07813710 -0.00578892 0.00760638
v 0.06979700 -0.01077340 -0.00123321
v 0.07001280 -0.00917461 -0.00183674
v 0.06953810 -0.00845358 -0.00277333
v 0.06856710 -0.00744258 -0.00370623
v 0.06754210 -0.00635712 -0.00458761
v 0.06683000 -0.00566744 -0.00497218
v 0.04725840 -0.00733285 -0.01118970
v 0.06294590 -0.01654160 0.00381773
v 0.06294590 -0.01644760 0.00194272
v 0.06297830 -0.01642800 0.00760638
v 0.05919130 -0.01651030 0.00760638
v 0.00481368 -0.01681980 0.00752174
v 0.00669100 -0.01841080 0.00705989
v 0.00293636 -0.01834030 0.00705805
v 0.00293636 -0.01681980 0.00749414
v -0.01769260 -0.01119270 0.00760638
v 0.02922960 -0.01785830 -0.01118970
v 0.07797530 -0.00607498 0.00760638
v 0.06943020 -0.01202340 -0.00076583
v 0.06868580 -0.01133770 -0.00191770
v 0.06920360 -0.00970362 -0.00248076
v 0.06795210 -0.01065190 -0.00294813
v 0.06856710 -0.00917461 -0.00312661
v 0.06712130 -0.00744258 -0.00442937
v 0.06578350 -0.00842615 -0.00463177
v 0.04533790 -0.01048730 -0.01118970
v 0.04622260 -0.00920596 -0.01118970
v 0.04685920 -0.00809307 -0.01118970
v 0.06490950 -0.01613410 0.00184703
v 0.06481240 -0.01624770 0.00381773
v 0.06481240 -0.01618110 0.00760638
v 0.03107460 -0.01765840 -0.01118970
v 0.06434850 -0.01598520 0.00073932
v 0.00715494 -0.01635350 0.00760638
v 0.07753290 -0.00680776 0.00760638
v 0.06979700 -0.01250940 0.00048540
v 0.06871810 -0.01320690 -0.00012550
v 0.06747740 -0.01390440 -0.00073455
v 0.06817870 -0.01265430 -0.00135649
v 0.06739110 -0.01190200 -0.00260404
v 0.07712290 -0.00744649 0.00760638
v 0.06673290 -0.01124360 -0.00325358
v 0.06652790 -0.00915893 -0.00413680
v 0.04446400 -0.01142780 -0.01118970
v 0.06560000 -0.01584410 0.00115702
v 0.06599930 -0.01598520 0.00240825
v 0.06593450 -0.01593820 0.00760638
v 0.06485560 -0.01617330 0.00760638
v 0.03293030 -0.01737630 -0.01118970
v 0.06490950 -0.01555410 0.00009531
v 0.06931150 -0.01381030 0.00194272
v 0.06801680 -0.01428840 0.00051484
v 0.07664820 -0.00807739 0.00760638
v 0.07583900 -0.00904529 0.00760638
v 0.07550450 -0.00944107 0.00760638
v 0.06678690 -0.01469590 -0.00003902
v 0.06623660 -0.01428450 -0.00120745
v 0.06680840 -0.01316380 -0.00190482
v 0.06613950 -0.01242310 -0.00292789
v 0.04236010 -0.01330480 -0.01118970
v 0.04352530 -0.01236830 -0.01118970
v 0.06665740 -0.01554630 0.00184703
v 0.06837290 -0.01455490 0.00194272
v 0.06985100 -0.01417870 0.00760638
v 0.06892310 -0.01470770 0.00760638
v 0.06690550 -0.01559720 0.00760638
v 0.03480770 -0.01693740 -0.01118970
v 0.06481240 -0.01455880 -0.00148897
v 0.07357330 -0.01130630 0.00760638
v 0.07296910 -0.01181180 0.00760638
v 0.07208440 -0.01254460 0.00760638
v 0.07103780 -0.01338710 0.00760638
v 0.03778550 -0.01595770 -0.01118970
v 0.06481240 -0.01361440 -0.00242555
v 0.03872410 -0.01552280 -0.01118970
v 0.04043960 -0.01462150 -0.01118970
v 0.04142140 -0.01404150 -0.01118970
v 0.03668500 -0.01634960 -0.01118970
f 1 2 3
f 185 203 205
f 185 205 204
f 186 204 187
f 187 204 206
f 192 197 193
f 193 197 207
f 193 207 208
f 193 208 209
f 193 209 210
f 193 210 194
f 194 211 212
f 194 212 195
f 194 210 211
f 195 212 213
f 195 213 196
f 196 213 198
f 200 201 214
f 185 204 186
f 184 203 185
f 183 203 184
f 183 202 203
f 174 190 175
f 175 190 176
f 176 191 178
f 176 178 177
f 178 192 193
f 178 193 194
f 178 194 195
f 178 195 196
f 200 214 202
f 178 196 179
f 178 197 192
f 179 196 198
f 180 199 181
f 181 200 182
f 181 199 201
f 181 201 200
f 182 200 183
f 183 200 202
f 178 191 197
f 201 215 214
f 202 216 217
f 202 217 203
f 215 233 234
f 215 234 235
f 215 235 232
f 216 236 217
f 216 232 236
f 217 237 221
f 217 236 237
f 218 221 238
f 214 232 216
f 218 238 239
f 218 240 241
f 218 241 242
f 218 242 243
f 218 243 244
f 218 244 245
f 218 245 219
f 221 246 238
f 221 237 246
f 218 239 240
f 171 189 172
f 214 215 232
f 210 230 223
f 202 214 216
f 203 217 205
f 204 205 218
f 204 218 219
f 204 219 220
f 204 220 206
f 205 217 221
f 205 221 218
f 211 224 231
f 209 222 210
f 210 249 224
f 210 224 211
f 210 222 225
f 210 225 226
f 210 226 227
f 210 227 228
f 210 228 229
f 210 229 230
f 210 223 249
f 171 188 189
f 171 187 188
f 171 186 187
f 126 145 150
f 126 150 149
f 127 149 151
f 127 151 152
f 127 152 128
f 131 133 153
f 131 153 154
f 131 154 136
f 126 146 145
f 134 155 135
f 134 156 155
f 135 155 138
f 136 154 157
f 136 157 158
f 136 158 156
f 137 140 159
f 138 155 160
f 138 160 139
f 134 136 156
f 139 160 161
f 126 149 127
f 124 147 148
f 117 120 118
f 117 131 136
f 117 136 134
f 119 120 137
f 120 135 138
f 120 138 139
f 120 139 140
f 120 140 137
f 124 148 144
f 121 123 141
f 121 142 122
f 122 142 143
f 122 143 124
f 124 144 145
f 124 145 146
f 124 146 126
f 124 126 125
f 124 143 147
f 121 141 142
f 223 247 248
f 139 161 140
f 140 163 159
f 160 173 161
f 161 177 178
f 161 178 179
f 161 179 163
f 161 163 162
f 161 173 176
f 161 176 177
f 166 169 180
f 156 176 173
f 166 180 181
f 166 182 167
f 167 182 183
f 167 183 184
f 167 184 168
f 168 184 185
f 168 185 170
f 170 185 171
f 171 185 186
f 166 181 182
f 140 162 163
f 156 175 176
f 156 158 174
f 140 161 162
f 142 164 143
f 143 164 147
f 144 148 165
f 144 165 166
f 144 166 145
f 145 167 168
f 145 168 150
f 156 174 175
f 145 166 167
f 148 166 165
f 149 150 170
f 149 170 171
f 149 171 151
f 150 168 170
f 151 171 172
f 155 156 160
f 156 173 160
f 148 169 166
f 117 135 120
f 223 248 249
f 224 249 250
f 298 316 299
f 299 316 317
f 302 318 319
f 302 319 303
f 302 306 318
f 303 319 320
f 303 320 321
f 303 321 304
f 305 322 306
f 306 323 318
f 306 322 323
f 309 324 325
f 309 325 310
f 309 314 326
f 309 326 327
f 309 327 328
f 309 328 324
f 297 316 298
f 295 316 297
f 295 315 316
f 295 313 315
f 281 304 283
f 282 290 305
f 282 305 306
f 282 306 302
f 284 307 285
f 285 307 288
f 285 287 286
f 288 307 289
f 310 325 311
f 291 308 292
f 292 310 311
f 292 311 312
f 292 312 313
f 292 313 293
f 292 308 314
f 292 314 309
f 293 313 295
f 293 295 294
f 292 309 310
f 311 329 330
f 311 330 331
f 311 331 312
f 324 328 342
f 324 342 343
f 324 343 344
f 324 344 345
f 324 345 336
f 325 336 335
f 330 332 331
f 330 341 346
f 324 336 325
f 330 346 347
f 332 347 346
f 332 346 348
f 332 348 349
f 332 349 350
f 332 350 333
f 336 345 337
f 340 351 341
f 341 351 346
f 330 347 332
f 281 303 304
f 323 340 341
f 323 341 330
f 311 325 329
f 312 331 313
f 313 331 332
f 313 332 315
f 315 332 333
f 315 333 334
f 315 334 316
f 316 334 317
f 323 330 329
f 318 323 329
f 318 325 335
f 318 335 319
f 319 335 336
f 319 336 337
f 319 337 338
f 319 338 339
f 319 339 320
f 322 340 323
f 318 329 325
f 281 302 303
f 281 282 302
f 279 301 280
f 247 264 248
f 247 253 264
f 248 264 265
f 248 265 266
f 248 266 267
f 248 267 250
f 248 250 249
f 250 268 251
f 239 262 263
f 250 267 268
f 252 268 269
f 253 270 264
f 254 260 271
f 254 271 261
f 256 272 258
f 256 258 257
f 256 273 274
f 256 274 272
f 251 268 252
f 258 272 275
f 238 262 239
f 237 254 261
f 224 250 251
f 224 251 252
f 224 252 231
f 230 253 247
f 232 235 254
f 232 254 255
f 232 255 236
f 233 256 257
f 238 246 262
f 233 257 234
f 234 258 259
f 234 259 260
f 234 260 254
f 234 254 235
f 236 255 237
f 237 261 262
f 237 262 246
f 237 255 254
f 234 257 258
f 223 230 247
f 258 275 259
f 259 276 260
f 272 274 275
f 273 291 292
f 273 292 274
f 274 292 293
f 274 293 294
f 274 294 276
f 274 276 275
f 276 294 295
f 271 277 278
f 276 295 296
f 277 296 295
f 277 295 278
f 278 295 297
f 278 297 298
f 278 298 299
f 278 299 300
f 278 300 279
f 279 300 301
f 276 296 277
f 259 275 276
f 270 290 282
f 268 288 269
f 260 276 277
f 260 277 271
f 261 271 262
f 262 271 278
f 262 278 279
f 262 279 263
f 263 279 280
f 264 281 265
f 269 288 289
f 264 270 282
f 265 281 283
f 265 283 266
f 266 284 285
f 266 285 286
f 266 286 267
f 267 286 268
f 268 287 285
f 268 285 288
f 264 282 281
f 117 134 135
f 268 286 287
f 112 133 131
f 16 350 349
f 16 349 348
f 16 348 346
f 16 346 351
f 16 351 340
f 16 340 322
f 16 322 305
f 16 305 290
f 16 290 270
f 16 270 253
f 16 253 230
f 16 230 229
f 16 229 228
f 16 228 227
f 16 227 226
f 16 226 225
f 16 225 222
f 16 333 350
f 16 334 333
f 16 317 334
f 16 299 317
f 16 172 189
f 16 189 188
f 16 188 187
f 16 187 206
f 16 206 220
f 16 220 219
f 16 219 245
f 16 245 244
f 16 222 209
f 16 244 243
f 16 242 241
f 16 241 240
f 16 240 239
f 16 239 263
f 16 263 280
f 16 280 301
f 16 301 300
f 16 300 299
f 16 243 242
f 16 209 208
f 16 208 207
f 16 207 197
f 16 51 17
f 17 51 52
f 17 52 18
f 18 52 19
f 19 52 53
f 19 53 54
f 19 54 55
f 19 55 56
f 16 68 51
f 19 56 20
f 20 55 75
f 20 75 88
f 20 88 104
f 20 104 119
f 20 119 137
f 20 137 159
f 20 159 163
f 20 163 179
f 20 56 55
f 16 151 172
f 16 70 68
f 16 72 71
f 16 197 191
f 16 191 176
f 16 176 190
f 16 190 174
f 16 174 158
f 16 158 157
f 16 157 154
f 16 154 153
f 16 71 70
f 16 153 133
f 16 132 115
f 16 115 114
f 16 114 100
f 16 100 99
f 16 99 98
f 16 98 97
f 16 97 85
f 16 85 72
f 16 133 132
f 16 152 151
f 16 128 152
f 16 129 128
f 5 20 6
f 6 21 22
f 6 22 7
f 6 20 23
f 6 23 24
f 6 24 25
f 6 25 26
f 6 26 21
f 4 20 5
f 7 22 27
f 8 28 9
f 8 27 29
f 8 29 30
f 8 30 31
f 8 31 32
f 8 32 33
f 8 33 28
f 9 28 34
f 7 27 8
f 9 34 10
f 4 19 20
f 4 17 18
f 116 131 117
f 1 3 4
f 1 4 5
f 1 5 6
f 1 6 7
f 1 7 8
f 1 8 9
f 1 9 10
f 4 18 19
f 1 10 2
f 2 10 12
f 2 12 13
f 2 13 14
f 2 14 11
f 3 15 4
f 3 11 15
f 4 15 16
f 4 16 17
f 2 11 3
f 20 179 198
f 10 13 35
f 10 34 36
f 16 48 47
f 16 47 46
f 16 46 45
f 16 45 44
f 16 44 43
f 16 43 42
f 16 42 41
f 16 41 39
f 16 49 48
f 16 39 38
f 16 37 36
f 16 36 67
f 16 67 82
f 16 82 81
f 16 81 94
f 16 94 111
f 16 111 130
f 16 130 129
f 16 38 37
f 10 35 12
f 16 50 49
f 15 50 40
f 10 36 37
f 10 37 13
f 11 14 37
f 11 37 38
f 11 38 39
f 11 39 15
f 12 35 13
f 13 37 14
f 16 40 50
f 15 40 16
f 15 41 42
f 15 42 43
f 15 43 44
f 15 45 46
f 15 46 47
f 15 47 48
f 15 48 49
f 15 49 50
f 15 39 41
f 20 198 213
f 15 44 45
f 20 212 211
f 80 91 92
f 80 92 93
f 80 93 94
f 80 94 81
f 83 95 96
f 83 96 84
f 83 85 97
f 83 97 98
f 80 89 91
f 83 98 99
f 83 100 95
f 84 96 86
f 86 96 101
f 86 101 87
f 87 101 102
f 87 102 103
f 87 103 104
f 87 104 88
f 83 99 100
f 89 105 91
f 79 90 89
f 78 79 89
f 58 59 76
f 63 78 64
f 63 79 78
f 64 66 65
f 64 78 66
f 66 78 80
f 66 80 81
f 66 81 82
f 78 89 80
f 66 82 67
f 69 84 73
f 69 72 85
f 69 85 83
f 73 84 74
f 74 84 86
f 74 86 75
f 75 87 88
f 75 86 87
f 69 83 84
f 58 61 60
f 89 90 106
f 89 107 105
f 105 122 108
f 106 123 107
f 107 123 121
f 108 122 124
f 108 124 125
f 108 125 126
f 108 126 109
f 109 126 110
f 105 121 122
f 110 126 127
f 110 128 129
f 110 129 130
f 110 130 111
f 112 131 116
f 112 116 113
f 112 115 132
f 20 213 212
f 112 132 133
f 110 127 128
f 89 106 107
f 105 107 121
f 104 118 120
f 91 105 108
f 91 108 92
f 92 108 109
f 92 109 110
f 92 110 93
f 93 110 111
f 93 111 94
f 95 112 113
f 104 120 119
f 95 113 96
f 95 115 112
f 96 113 102
f 96 102 101
f 102 113 116
f 102 116 117
f 102 117 118
f 102 118 103
f 103 118 104
f 95 100 114
f 58 77 61
f 95 114 115
f 57 59 58
f 20 314 308
f 20 308 291
f 20 291 273
f 20 273 256
f 20 256 233
f 20 233 215
f 20 215 201
f 20 201 199
f 20 326 314
f 20 199 180
f 20 169 148
f 20 148 147
f 20 147 164
f 20 164 142
f 20 142 141
f 20 141 123
f 20 123 106
f 20 106 90
f 20 180 169
f 20 90 79
f 20 327 326
f 20 342 328
f 20 211 231
f 20 231 252
f 58 76 77
f 20 252 269
f 20 269 289
f 20 289 307
f 20 307 284
f 20 284 266
f 20 328 327
f 20 266 283
f 20 304 321
f 20 321 320
f 20 320 339
f 20 339 338
f 20 338 337
f 20 337 345
f 20 345 344
f 20 343 342
f 20 283 304
f 20 79 63
f 20 344 343
f 20 33 32
f 30 61 62
f 30 62 31
f 33 63 64
f 33 64 65
f 33 65 34
f 34 65 66
f 34 66 67
f 34 67 36
f 52 69 53
f 52 68 70
f 52 70 71
f 52 71 72
f 52 72 69
f 53 69 54
f 54 73 74
f 55 74 75
f 20 63 33
f 54 74 55
f 54 69 73
f 30 60 61
f 28 33 34
f 51 68 52
f 27 60 30
f 20 62 61
f 20 31 62
f 27 30 29
f 20 61 77
f 20 77 76
f 20 76 59
f 20 59 26
f 20 25 24
f 20 24 23
f 21 57 22
f 20 26 25
f 21 26 57
f 22 57 58
f 20 32 31
f 22 58 27
f 26 59 57
f 27 58 60

