# https://github.com/mikedh/trimesh

o convex_0
v 0.05503540 -0.00182225 -0.06182170
v 0.05502050 -0.00369165 -0.06182170
v 0.05503040 -0.00182225 -0.06369510
v 0.05478660 0.00005435 -0.06369510
v 0.05475670 0.00005435 -0.06182170
v 0.05450790 -0.00087316 -0.05337270
v 0.05452280 -0.00182225 -0.05323150
v 0.05452280 -0.00295827 -0.05319350
v 0.05480150 -0.00556825 -0.06182170
v 0.05478660 -0.00556825 -0.06369510
v 0.05499560 -0.00369165 -0.06369510
v 0.05451280 -0.00468388 -0.05514290
v 0.05499560 -0.00182225 -0.06556840
v 0.05456260 0.00120835 -0.06369510
v 0.05454770 0.00116162 -0.06182170
v 0.05474180 0.00005435 -0.06556840
v 0.05453770 0.00110769 -0.06556840
v 0.05452280 0.00106455 -0.06077920
v 0.05376630 0.00193095 -0.05244960
v 0.05424900 -0.00012540 -0.05262880
v 0.05392550 0.00005435 -0.05057080
v 0.05336810 0.00005435 -0.04681870
v 0.05356220 -0.00182225 -0.04681870
v 0.05413960 -0.00182225 -0.05057080
v 0.05439840 -0.00182225 -0.05229210
v 0.05410470 -0.00369165 -0.05057080
v 0.05438340 -0.00362694 -0.05252020
v 0.05446310 -0.00420934 -0.05389400
v 0.05460740 -0.00687684 -0.06182170
v 0.05459740 -0.00688043 -0.06369510
v 0.05457260 -0.00674742 -0.06049140
v 0.05458750 -0.00683729 -0.06556840
v 0.05457260 -0.00675820 -0.06744720
v 0.05474670 -0.00556825 -0.06556840
v 0.05470200 -0.00556825 -0.06744720
v 0.05495080 -0.00369165 -0.06556840
v 0.05413960 -0.00556825 -0.05244960
v 0.05433860 -0.00541367 -0.05444240
v 0.05493090 -0.00182225 -0.06744720
v 0.05431370 0.00214665 -0.06369510
v 0.05430380 0.00209992 -0.06182170
v 0.05464720 0.00017299 -0.06733860
v 0.05451280 0.00101422 -0.06664360
v 0.05426900 0.00204599 -0.06556840
v 0.05320890 0.00380396 -0.05244960
v 0.05352240 0.00193095 -0.05057080
v 0.05324370 0.00193095 -0.04869750
v 0.05290530 0.00207835 -0.04670460
v 0.05261160 0.00280095 -0.04600420
v 0.05277590 0.00155348 -0.04547200
v 0.05101900 0.00200645 -0.03735420
v 0.05138230 0.00005435 -0.03744110
v 0.05351740 -0.00369165 -0.04681870
v 0.05153160 -0.00182225 -0.03744110
v 0.05192980 -0.00369165 -0.03931990
v 0.05388570 -0.00556825 -0.05057080
v 0.05434360 -0.00781514 -0.06182170
v 0.05436350 -0.00781873 -0.06369510
v 0.05378620 -0.00744485 -0.05244960
v 0.05323870 -0.00931785 -0.05244960
v 0.05434860 -0.00777559 -0.06556840
v 0.05431870 -0.00769291 -0.06744720
v 0.05454270 -0.00664316 -0.06885900
v 0.05488610 -0.00369165 -0.06744720
v 0.05451280 -0.00284323 -0.07605370
v 0.05451280 -0.00267786 -0.07605370
v 0.05372150 0.00380396 -0.06369510
v 0.05372650 0.00380396 -0.06182170
v 0.05364680 0.00380396 -0.06556840
v 0.05435850 -0.00196245 -0.07673790
v 0.05448300 0.00087402 -0.06789250
v 0.05424900 0.00175480 -0.06733860
v 0.05356220 0.00380396 -0.06744720
v 0.05276090 0.00495077 -0.05244960
v 0.05269130 0.00483213 -0.05117350
v 0.05293010 0.00390821 -0.05055450
v 0.04983450 0.00568055 -0.03744110
v 0.05052130 0.00381834 -0.03735420
v 0.05085970 0.00319999 -0.03792440
v 0.05238270 0.00374644 -0.04670460
v 0.05071540 0.00268591 -0.03667000
v 0.05058600 0.00200645 -0.03551890
v 0.05084480 0.00143484 -0.03611620
v 0.05070050 0.00052890 -0.03486730
v 0.05092940 -0.00003552 -0.03551890
v 0.05077510 -0.00072217 -0.03454690
v 0.05327850 -0.00556825 -0.04681870
v 0.05358710 -0.00556825 -0.04869750
v 0.05081990 -0.00182225 -0.03444370
v 0.05081490 -0.00314521 -0.03444370
v 0.05148180 -0.00369165 -0.03744110
v 0.05125290 -0.00556825 -0.03744110
v 0.05169090 -0.00556825 -0.03931990
v 0.05322380 -0.00744485 -0.04869750
v 0.05351250 -0.00744485 -0.05057080
v 0.05385090 -0.00931785 -0.06182170
v 0.05388080 -0.00931785 -0.06369510
v 0.05386580 -0.00931785 -0.06556840
v 0.05282070 -0.00895835 -0.04869750
v 0.05260170 -0.01017710 -0.04990290
v 0.05277590 -0.01055810 -0.05244960
v 0.05382600 -0.00931785 -0.06744720
v 0.05432370 -0.00734060 -0.06941830
v 0.05449290 -0.00638792 -0.07010790
v 0.05460240 -0.00568329 -0.06941830
v 0.05383100 -0.00744485 -0.07681940
v 0.05369660 -0.00744485 -0.07869820
v 0.05414450 -0.00556825 -0.07681940
v 0.05316900 -0.00556825 -0.08991650
v 0.05334820 -0.00369165 -0.08991650
v 0.05331840 -0.00182225 -0.08991650
v 0.05297490 0.00538217 -0.06369510
v 0.05298990 0.00540733 -0.06182170
v 0.05292520 0.00527432 -0.06744720
v 0.05294010 0.00536779 -0.05994840
v 0.05399020 0.00005435 -0.07681940
v 0.05352240 0.00193095 -0.07681940
v 0.05294010 0.00355230 -0.07681940
v 0.05245730 0.00630609 -0.05994840
v 0.05096920 0.00694960 -0.04681870
v 0.05085480 0.00678063 -0.04536340
v 0.05161130 0.00568055 -0.04681870
v 0.05257680 0.00460205 -0.04991920
v 0.04916260 0.00707542 -0.03744110
v 0.04898840 0.00680220 -0.03605100
v 0.04883910 0.00653257 -0.03479670
v 0.04921730 0.00553316 -0.03444370
v 0.05118320 0.00583874 -0.04482040
v 0.05073030 0.00656852 -0.04411450
v 0.05011320 0.00380396 -0.03556770
v 0.04984940 0.00380396 -0.03444370
v 0.05248220 0.00432883 -0.04869750
v 0.05032220 0.00196331 -0.03444370
v 0.05062580 0.00029882 -0.03444370
v 0.05066560 -0.00003552 -0.03444370
v 0.05073530 -0.00062511 -0.03444370
v 0.05075520 -0.00082283 -0.03444370
v 0.05274600 -0.00694514 -0.04547200
v 0.05287040 -0.00752035 -0.04678070
v 0.05058600 -0.00473421 -0.03444370
v 0.05077510 -0.00659283 -0.03641480
v 0.05091450 -0.00730824 -0.03754970
v 0.05045160 -0.00556825 -0.03444370
v 0.05270620 -0.00860604 -0.04738340
v 0.05307450 -0.01116210 -0.06182170
v 0.05300980 -0.01111540 -0.05994840
v 0.05308440 -0.01115490 -0.06369510
v 0.05298990 -0.01136700 -0.06751240
v 0.05250210 -0.00989665 -0.04869750
v 0.05188000 -0.01119450 -0.04869750
v 0.05223830 -0.01105780 -0.05054370
v 0.05230300 -0.01149640 -0.05244960
v 0.05259170 -0.01205370 -0.05994840
v 0.05263650 -0.01213990 -0.06839750
v 0.05278080 -0.01055810 -0.07681940
v 0.05326360 -0.00931785 -0.07681940
v 0.05284060 -0.00754192 -0.08991650
v 0.05286540 0.00020175 -0.08991650
v 0.05244240 0.00632047 -0.06369510
v 0.05246230 0.00634563 -0.06182170
v 0.05258670 0.00465238 -0.07494600
v 0.05236280 0.00621262 -0.06744720
v 0.05263650 0.00100344 -0.08991650
v 0.05230800 0.00179075 -0.08991650
v 0.05227820 0.00185905 -0.08991650
v 0.05250210 0.00449060 -0.07681940
v 0.05156650 0.00755715 -0.05994840
v 0.05080500 0.00854578 -0.05878640
v 0.05027240 0.00788789 -0.04681870
v 0.04923720 0.00892326 -0.04494530
v 0.05027740 0.00746368 -0.04482040
v 0.04854050 0.00801372 -0.03744110
v 0.04814230 0.00752480 -0.03444370
v 0.04879430 0.00644629 -0.03444370
v 0.05079500 -0.00848022 -0.03824470
v 0.05258180 -0.00819621 -0.04613450
v 0.05027240 -0.00645982 -0.03444370
v 0.05007830 -0.00739452 -0.03444370
v 0.05234780 -0.00926393 -0.04678070
v 0.05261160 -0.01210040 -0.06182170
v 0.05263650 -0.01213990 -0.06818570
v 0.05032720 -0.00919203 -0.03754970
v 0.05109860 -0.01125920 -0.04509740
v 0.05150670 -0.01119450 -0.04681870
v 0.05107370 -0.01259290 -0.04869750
v 0.05088460 -0.01232690 -0.04681870
v 0.05122300 -0.01282300 -0.05057080
v 0.05136240 -0.01297400 -0.05244960
v 0.05190990 -0.01307110 -0.05994840
v 0.05098420 -0.01426460 -0.06556840
v 0.05097920 -0.01425020 -0.06744720
v 0.05076020 -0.01401290 -0.07592340
v 0.05081490 -0.01222260 -0.08991650
v 0.05229310 -0.01149640 -0.07681940
v 0.05100900 -0.01429340 -0.05994840
v 0.05136240 -0.01121600 -0.08991650
v 0.05227320 -0.00924955 -0.08991650
v 0.05229810 -0.00919203 -0.08991650
v 0.05136740 0.00771893 -0.06364080
v 0.05155150 0.00755715 -0.06182170
v 0.05102400 0.00694960 -0.07494600
v 0.05142210 0.00739538 -0.06744720
v 0.05077510 0.00851343 -0.06298380
v 0.05172570 0.00568055 -0.07681940
v 0.05123800 0.00396573 -0.08991650
v 0.05120810 0.00401966 -0.08991650
v 0.05077510 0.00476742 -0.08991650
v 0.05080000 0.00854578 -0.05994840
v 0.04981460 0.00943735 -0.05994840
v 0.04882410 0.01032530 -0.05807500
v 0.04744550 0.01073510 -0.04494530
v 0.04838120 0.00985796 -0.04494530
v 0.04660440 0.00992627 -0.03556770
v 0.04739080 0.00898797 -0.03556770
v 0.04727130 0.00883698 -0.03444370
v 0.04943630 -0.00936818 -0.03444370
v 0.04975480 -0.00931785 -0.03556770
v 0.05192480 -0.01307110 -0.06182170
v 0.04913770 -0.01074870 -0.03556770
v 0.04931190 -0.01131310 -0.03747370
v 0.05064570 -0.01192420 -0.04457610
v 0.05020280 -0.01326520 -0.04681870
v 0.05038690 -0.01353120 -0.04869750
v 0.05057600 -0.01376130 -0.05057080
v 0.04881420 -0.01201770 -0.03687090
v 0.05009330 -0.01289130 -0.04509740
v 0.05067560 -0.01391230 -0.05244960
v 0.05004850 -0.01520290 -0.06556840
v 0.04892370 -0.01592190 -0.07271970
v 0.04883910 -0.01585360 -0.07494600
v 0.04821700 -0.01527120 -0.08991650
v 0.04919740 -0.01435450 -0.08991650
v 0.05015300 -0.01314300 -0.08991650
v 0.04963540 -0.01484340 -0.05057080
v 0.04875940 -0.01578170 -0.05057080
v 0.05004850 -0.01523170 -0.05994840
v 0.05011820 0.00788430 -0.07494600
v 0.05056610 0.00833008 -0.06744720
v 0.05091450 0.00680220 -0.07681940
v 0.04912770 0.00686691 -0.08991650
v 0.05068060 0.00841277 -0.06556840
v 0.04973990 0.00923962 -0.06556840
v 0.04997880 0.00914975 -0.06364080
v 0.04874950 0.01028220 -0.06182170
v 0.04881420 0.01032530 -0.05994840
v 0.05082990 0.00670154 -0.07812800
v 0.05022760 0.00549361 -0.08991650
v 0.04788850 0.01096160 -0.05807500
v 0.04613660 0.01167340 -0.04494530
v 0.04507650 0.01221270 -0.04253980
v 0.04589270 0.01167700 -0.04312630
v 0.04728130 0.01062010 -0.04307200
v 0.04555430 0.01074950 -0.03444370
v 0.04648990 0.00977528 -0.03444370
v 0.04680850 0.00939780 -0.03444370
v 0.04897350 -0.01043950 -0.03444370
v 0.04864990 -0.01168700 -0.03556770
v 0.04853050 -0.01133470 -0.03444370
v 0.04893860 -0.01407770 -0.04381050
v 0.04906800 -0.01422150 -0.04494530
v 0.04926710 -0.01443360 -0.04681870
v 0.04945120 -0.01464930 -0.04869750
v 0.04793820 -0.01233050 -0.03444370
v 0.04753010 -0.01295240 -0.03444370
v 0.04763960 -0.01321490 -0.03551340
v 0.04711700 -0.01412800 -0.03609990
v 0.04910780 -0.01607650 -0.06556840
v 0.04812740 -0.01645040 -0.07323560
v 0.04725640 -0.01607290 -0.08991650
v 0.04761970 -0.01635690 -0.04869750
v 0.04626100 -0.01729520 -0.04869750
v 0.04782380 -0.01642160 -0.05057080
v 0.04794320 -0.01684940 -0.05807500
v 0.04906800 -0.01603330 -0.05807500
v 0.04855540 -0.01558760 -0.04869750
v 0.04709220 -0.01595790 -0.04366390
v 0.04911280 -0.01607290 -0.05994840
v 0.04918250 0.00874351 -0.07494600
v 0.04928200 0.00885855 -0.07307270
v 0.04966530 0.00619824 -0.08991650
v 0.04910290 0.00688848 -0.08991650
v 0.04884900 0.00847029 -0.07942580
v 0.04857530 0.01017790 -0.06556840
v 0.04868480 0.01023180 -0.06369510
v 0.04774410 0.01083220 -0.06369510
v 0.04787850 0.01092930 -0.05994840
v 0.05018780 0.00554394 -0.08991650
v 0.04634060 0.01189990 -0.05807500
v 0.04524570 0.01231700 -0.04681870
v 0.04520090 0.01229180 -0.04494530
v 0.04515110 0.01225940 -0.04378870
v 0.04434490 0.01263330 -0.04312630
v 0.04231430 0.01349970 -0.04119320
v 0.04276720 0.01268360 -0.03444370
v 0.04340420 0.01233850 -0.03444370
v 0.04434490 0.01168780 -0.03444370
v 0.04486250 0.01131040 -0.03444370
v 0.04566380 0.01083220 -0.03556770
v 0.04712200 -0.01352760 -0.03444370
v 0.04694290 -0.01393390 -0.03484550
v 0.04505160 -0.01582120 -0.03499760
v 0.04794320 -0.01691410 -0.06182170
v 0.04794320 -0.01689970 -0.06369510
v 0.04794320 -0.01686380 -0.06556840
v 0.04794320 -0.01691410 -0.05994840
v 0.04681340 -0.01765830 -0.06369510
v 0.04647000 -0.01750010 -0.07307270
v 0.04608680 -0.01679550 -0.08991650
v 0.04606690 -0.01687100 -0.04494530
v 0.04520590 -0.01780210 -0.04740510
v 0.04532530 -0.01785960 -0.04869750
v 0.04677360 -0.01763670 -0.05807500
v 0.04505160 -0.01772300 -0.04615080
v 0.04620130 -0.01646470 -0.04305030
v 0.04803780 0.00979685 -0.07307270
v 0.04800790 0.00780880 -0.08991650
v 0.04708720 0.00853140 -0.08991650
v 0.04763960 0.01074230 -0.06556840
v 0.04702250 0.01037920 -0.07409350
v 0.04709710 0.01042240 -0.07307270
v 0.04588770 0.01184960 -0.06357560
v 0.04626100 0.01186760 -0.05994840
v 0.04540500 0.01237810 -0.05807500
v 0.04419060 0.01287060 -0.04681870
v 0.04419060 0.01281310 -0.04494530
v 0.04231430 0.01361120 -0.04307200
v 0.04111980 0.01402820 -0.04119320
v 0.03965160 0.01418280 -0.03444370
v 0.04231430 0.01290650 -0.03444370
v 0.04687320 -0.01385480 -0.03444370
v 0.04654970 -0.01419630 -0.03444370
v 0.04496700 -0.01574210 -0.03444370
v 0.04456880 -0.01604410 -0.03444370
v 0.04683340 -0.01766910 -0.06182170
v 0.04682340 -0.01766550 -0.05994840
v 0.04587780 -0.01811130 -0.06369510
v 0.04558410 -0.01798540 -0.07119390
v 0.04552940 -0.01793870 -0.07307270
v 0.04533030 -0.01785960 -0.07681940
v 0.04467330 -0.01755760 -0.08991650
v 0.04606690 -0.01680630 -0.08991650
v 0.04463850 -0.01748930 -0.04307200
v 0.04488740 -0.01763670 -0.04494530
v 0.04433490 -0.01810410 -0.04679700
v 0.04370280 -0.01798180 -0.04307200
v 0.04231430 -0.01856420 -0.04307200
v 0.04231430 -0.01891300 -0.04681870
v 0.04419060 -0.01872600 -0.05619630
v 0.04573340 -0.01807170 -0.05619630
v 0.04583800 -0.01810050 -0.05807500
v 0.04705730 0.00855297 -0.08991650
v 0.04617140 0.01071000 -0.07481030
v 0.04606690 0.01094010 -0.07307270
v 0.04506150 0.01221990 -0.06412410
v 0.04606690 0.00911379 -0.08991650
v 0.04603210 0.00913177 -0.08991650
v 0.04427020 0.01000540 -0.08991650
v 0.04532530 0.01233850 -0.05994840
v 0.04419060 0.01280950 -0.05994840
v 0.04419060 0.01287780 -0.05807500
v 0.04138850 0.01412520 -0.04602590
v 0.04213510 0.01380170 -0.04672090
v 0.04213510 0.01378010 -0.04504850
v 0.04123920 0.01407490 -0.04307200
v 0.04000990 0.01433020 -0.03931990
v 0.03866120 0.01450630 -0.03444370
v 0.04407610 -0.01634250 -0.03444370
v 0.04589270 -0.01811850 -0.06182170
v 0.04588770 -0.01811490 -0.05994840
v 0.04419060 -0.01881230 -0.06182170
v 0.04419060 -0.01854630 -0.07119390
v 0.04373270 -0.01796390 -0.08991650
v 0.04342410 -0.01784880 -0.04119320
v 0.04231430 -0.01834850 -0.04119320
v 0.04043790 -0.01904600 -0.04119320
v 0.04065190 -0.01945220 -0.04681870
v 0.04231430 -0.01926170 -0.05432290
v 0.04215000 -0.01940190 -0.05621260
v 0.04419060 -0.01878710 -0.05807500
v 0.04419060 0.01174890 -0.07307270
v 0.04408110 0.01195750 -0.07132420
v 0.04337930 0.01229180 -0.07078120
v 0.04433990 0.01251830 -0.06357560
v 0.04419060 0.01269440 -0.06182170
v 0.04333450 0.01040080 -0.08991650
v 0.04231430 0.01345300 -0.05994840
v 0.04231430 0.01353930 -0.05807500
v 0.04231430 0.01361840 -0.05619630
v 0.04138850 0.01412520 -0.04573810
v 0.04107500 0.01404620 -0.05432290
v 0.04034340 0.01435170 -0.04869750
v 0.04059720 0.01431940 -0.04672090
v 0.04132380 0.01410370 -0.04448920
v 0.04018410 0.01435170 -0.04119320
v 0.03856160 0.01466810 -0.03744110
v 0.03744180 0.01486940 -0.03444370
v 0.04216490 -0.01739590 -0.03444370
v 0.04419060 -0.01881230 -0.05994840
v 0.04214500 -0.01943060 -0.06178920
v 0.04231430 -0.01912870 -0.07119390
v 0.04237400 -0.01939110 -0.05994840
v 0.04233910 -0.01844560 -0.08991650
v 0.04152290 -0.01774460 -0.03444370
v 0.04143830 -0.01778410 -0.03444370
v 0.04043790 -0.01880150 -0.03931990
v 0.04134370 -0.01782010 -0.03444370
v 0.03976110 -0.01840610 -0.03444370
v 0.03856160 -0.01883030 -0.03444370
v 0.03845710 -0.01942340 -0.03928190
v 0.03891000 -0.01948460 -0.04119320
v 0.04043790 -0.01920420 -0.04307200
v 0.03971130 -0.01968230 -0.04681870
v 0.04122930 -0.01959960 -0.05432290
v 0.03957190 -0.01964990 -0.04565670
v 0.04141340 -0.01964270 -0.05684790
v 0.04237900 -0.01938390 -0.05807500
v 0.04132880 -0.01962120 -0.05559350
v 0.04322010 0.01223430 -0.07203560
v 0.04231430 0.01319050 -0.06369510
v 0.04231430 0.01333080 -0.06182170
v 0.04331460 0.01040800 -0.08991650
v 0.04091080 0.01402460 -0.05619630
v 0.04059720 0.01431940 -0.04504850
v 0.04030360 0.01436970 -0.04307200
v 0.04013930 0.01427260 -0.05432290
v 0.03481400 0.01549490 -0.04494530
v 0.03481400 0.01552730 -0.04307200
v 0.03481400 0.01553450 -0.04119320
v 0.03856160 0.01472920 -0.03931990
v 0.03669030 0.01507070 -0.03444370
v 0.04143830 -0.01964990 -0.05994840
v 0.04140850 -0.01964270 -0.06114300
v 0.04078630 -0.01953130 -0.06932060
v 0.04047780 -0.01891300 -0.08991650
v 0.04231430 -0.01845280 -0.08991650
v 0.04143830 -0.01964990 -0.05807500
v 0.03778520 -0.01904600 -0.03444370
v 0.03776030 -0.01966790 -0.03988460
v 0.03663060 -0.01935150 -0.03444370
v 0.03797430 -0.01971460 -0.04119320
v 0.03856160 -0.01989080 -0.04681870
v 0.04028860 -0.01980810 -0.05432290
v 0.04059720 -0.01979010 -0.05621260
v 0.04043790 -0.01984410 -0.05807500
v 0.04248350 0.01250750 -0.07132420
v 0.04227940 0.01072440 -0.08991650
v 0.03666540 0.01400660 -0.06759930
v 0.03728250 0.01405330 -0.06556840
v 0.04043790 0.01388080 -0.05994840
v 0.04038820 0.01400660 -0.05825970
v 0.03997010 0.01421870 -0.05619630
v 0.03481400 0.01526490 -0.05244960
v 0.03481400 0.01534040 -0.05057080
v 0.03481400 0.01539790 -0.04869750
v 0.03293760 0.01573940 -0.04494530
v 0.03293760 0.01578610 -0.04307200
v 0.03293760 0.01581850 -0.04119320
v 0.03293760 0.01582210 -0.03931990
v 0.03556550 0.01526850 -0.03444370
v 0.04043790 -0.01983690 -0.05994840
v 0.04059220 -0.01977580 -0.06178920
v 0.04029860 -0.01979010 -0.06369510
v 0.03995020 -0.01974340 -0.06744720
v 0.04043790 -0.01892010 -0.08991650
v 0.03293760 -0.02018200 -0.03931990
v 0.03581930 -0.01964630 -0.03633340
v 0.03473430 -0.01958880 -0.03444370
v 0.03293760 -0.02027550 -0.04119320
v 0.03293760 -0.02047320 -0.04681870
v 0.03481400 -0.02041210 -0.05244960
v 0.03856160 -0.01999150 -0.05244960
v 0.03293760 -0.02035460 -0.04307200
v 0.03293760 -0.02042290 -0.04494530
v 0.03481400 -0.02045880 -0.05807500
v 0.03481400 -0.02045520 -0.05994840
v 0.03856160 -0.02001660 -0.05432290
v 0.03481400 -0.02044080 -0.05432290
v 0.04043790 0.01119530 -0.08991650
v 0.04040310 0.01120250 -0.08991650
v 0.03856160 0.01279150 -0.07681940
v 0.03569490 0.01411450 -0.06832690
v 0.03602340 0.01416840 -0.06707800
v 0.03634190 0.01422950 -0.06556840
v 0.03669030 0.01384480 -0.06932060
v 0.03949730 0.01412170 -0.05900900
v 0.03973120 0.01416480 -0.05775470
v 0.03481400 0.01507430 -0.05619630
v 0.03481400 0.01517860 -0.05432290
v 0.03481400 0.01496650 -0.05807500
v 0.03293760 0.01543740 -0.05244960
v 0.03293760 0.01552370 -0.05057080
v 0.03293760 0.01560640 -0.04869750
v 0.03293760 0.01567470 -0.04681870
v 0.03106130 0.01589040 -0.04307200
v 0.03098170 0.01595150 -0.04115520
v 0.03143460 0.01596230 -0.03931990
v 0.03156900 0.01596230 -0.03744110
v 0.03145950 0.01592280 -0.03556770
v 0.03034460 0.01602700 -0.03444370
v 0.03481400 -0.02043720 -0.06182170
v 0.03481400 -0.02041570 -0.06369510
v 0.03481400 -0.02037970 -0.06556840
v 0.04008460 -0.01977220 -0.06556840
v 0.03481400 -0.02032580 -0.06744720
v 0.03856160 -0.01921130 -0.08991650
v 0.03985070 -0.01969670 -0.06932060
v 0.03106130 -0.02028270 -0.03931990
v 0.03293760 -0.02002380 -0.03744110
v 0.03106130 -0.02018560 -0.03744110
v 0.03244490 -0.01979730 -0.03444370
v 0.03106130 -0.02002740 -0.03556770
v 0.03293760 -0.02051270 -0.04869750
v 0.03106130 -0.02041210 -0.04307200
v 0.03106130 -0.02045880 -0.04494530
v 0.03293760 -0.02054510 -0.05057080
v 0.03106130 -0.02035460 -0.04119320
v 0.03293760 -0.02057030 -0.05432290
v 0.03293760 -0.02057390 -0.05619630
v 0.03293760 -0.02055590 -0.05807500
v 0.03293760 -0.02055950 -0.05244960
v 0.03856160 0.01151530 -0.08991650
v 0.03669030 0.01331640 -0.07494600
v 0.03669030 0.01349970 -0.07307270
v 0.03496820 0.01423670 -0.06759930
v 0.03481400 0.01442000 -0.06556840
v 0.03481400 0.01457100 -0.06369510
v 0.03481400 0.01371540 -0.07307270
v 0.03481400 0.01390600 -0.07119390
v 0.03496820 0.01407130 -0.06941830
v 0.03444570 0.01416840 -0.06885360
v 0.03481400 0.01471120 -0.06182170
v 0.03481400 0.01484780 -0.05994840
v 0.03669030 0.01442000 -0.06182170
v 0.03680970 0.01427620 -0.06366250
v 0.03293760 0.01533680 -0.05432290
v 0.03293760 0.01509950 -0.05807500
v 0.03106130 0.01565670 -0.04869750
v 0.03106130 0.01574660 -0.04681870
v 0.03106130 0.01582570 -0.04494530
v 0.03029980 0.01600540 -0.04050360
v 0.03049890 0.01601980 -0.03931990
v 0.03062830 0.01603060 -0.03744110
v 0.03052380 0.01603780 -0.03556770
v 0.02982700 0.01605940 -0.03444370
v 0.03293760 -0.02053790 -0.05994840
v 0.03293760 -0.02051270 -0.06182170
v 0.03293760 -0.02042290 -0.06556840
v 0.03293760 -0.02047320 -0.06369510
v 0.03293760 -0.02036530 -0.06744720
v 0.03481400 -0.02026110 -0.06932060
v 0.03669030 -0.01935510 -0.08991650
v 0.02919000 -0.02020360 -0.03744110
v 0.02919000 -0.02000220 -0.03444370
v 0.02919000 -0.02009570 -0.03556770
v 0.03106130 -0.02049480 -0.04681870
v 0.02919000 -0.02026830 -0.03931990
v 0.02544230 -0.02021790 -0.04494530
v 0.03106130 -0.02054510 -0.05057080
v 0.03106130 -0.02052350 -0.04869750
v 0.03106130 -0.02055230 -0.05244960
v 0.03106130 -0.02054870 -0.05432290
v 0.03106130 -0.02054150 -0.05619630
v 0.03852680 0.01151890 -0.08991650
v 0.03293760 0.01468250 -0.06369510
v 0.03293760 0.01483350 -0.06182170
v 0.03669030 0.01170220 -0.08991650
v 0.03481400 0.01351050 -0.07494600
v 0.03293760 0.01339190 -0.07681940
v 0.03293760 0.01359320 -0.07494600
v 0.03293760 0.01378730 -0.07307270
v 0.03293760 0.01419360 -0.06909790
v 0.03293760 0.01435530 -0.06744720
v 0.03293760 0.01452070 -0.06556840
v 0.03293760 0.01497370 -0.05994840
v 0.02731860 0.01524330 -0.05619630
v 0.02731860 0.01535470 -0.05432290
v 0.02731860 0.01557760 -0.05057080
v 0.02731860 0.01568550 -0.04869750
v 0.02731860 0.01512110 -0.05807500
v 0.02640780 0.01600180 -0.04236610
v 0.02919000 0.01609170 -0.03744110
v 0.02919000 0.01610970 -0.03556770
v 0.02926460 0.01609170 -0.03444370
v 0.03106130 -0.02051270 -0.05807500
v 0.03106130 -0.02048400 -0.05994840
v 0.02731860 -0.02017120 -0.06556840
v 0.03106130 -0.02044080 -0.06182170
v 0.02731860 -0.02011370 -0.06744720
v 0.03293760 -0.02030060 -0.06932060
v 0.03481400 -0.02018920 -0.07119390
v 0.03484880 -0.01940190 -0.08991650
v 0.02731860 -0.02004900 -0.03556770
v 0.02731860 -0.01998430 -0.03444370
v 0.02544230 -0.02025030 -0.04681870
v 0.02544230 -0.02017840 -0.04307200
v 0.02356600 -0.01992320 -0.04119320
v 0.02356600 -0.01996270 -0.04307200
v 0.02544230 -0.02026110 -0.04869750
v 0.02544230 -0.02026470 -0.05057080
v 0.02544230 -0.02025390 -0.05244960
v 0.02544230 -0.02023590 -0.05432290
v 0.02731860 -0.02024670 -0.06182170
v 0.02831900 0.01412520 -0.07029800
v 0.02731860 0.01484430 -0.06182170
v 0.02731860 0.01498810 -0.05994840
v 0.03481400 0.01179930 -0.08991650
v 0.03293760 0.01183880 -0.08991650
v 0.03106130 0.01319410 -0.07869820
v 0.02544230 0.01551650 -0.05057080
v 0.02544230 0.01563160 -0.04869750
v 0.02544230 0.01573940 -0.04681870
v 0.02629840 0.01600180 -0.04236610
v 0.02544230 0.01539430 -0.05244960
v 0.02731860 0.01613850 -0.03556770
v 0.02731860 0.01615280 -0.03444370
v 0.02807020 0.01614210 -0.03444370
v 0.02731860 -0.02021790 -0.06369510
v 0.02544230 -0.02008850 -0.06182170
v 0.02544230 -0.02003460 -0.06369510
v 0.02544230 -0.01996630 -0.06556840
v 0.02544230 -0.01907110 -0.08991650
v 0.02547720 -0.01907470 -0.08991650
v 0.02731860 -0.02004180 -0.06932060
v 0.02735350 -0.01919700 -0.08991650
v 0.03293760 -0.02022150 -0.07119390
v 0.03481400 -0.01940190 -0.08991650
v 0.02544230 -0.01984770 -0.03444370
v 0.02356600 -0.01999510 -0.04681870
v 0.02356600 -0.01998430 -0.04494530
v 0.02251580 -0.01965710 -0.03824470
v 0.02239640 -0.01968230 -0.03931990
v 0.02229690 -0.01970750 -0.04119320
v 0.02413340 -0.01969310 -0.03444370
v 0.02356600 -0.01999150 -0.04869750
v 0.02356600 -0.01998070 -0.05057080
v 0.02356600 -0.01996270 -0.05244960
v 0.02544230 -0.02020720 -0.05619630
v 0.02820450 0.01412520 -0.07029800
v 0.02731860 0.01468250 -0.06369510
v 0.02544230 0.01466450 -0.06182170
v 0.02544230 0.01482270 -0.05994840
v 0.02544230 0.01497370 -0.05807500
v 0.02544230 0.01512110 -0.05619630
v 0.02544230 0.01526130 -0.05432290
v 0.03106130 0.01185680 -0.08991650
v 0.02919000 0.01184240 -0.08991650
v 0.02356600 0.01541230 -0.04869750
v 0.02356600 0.01552730 -0.04681870
v 0.02356600 0.01563520 -0.04494530
v 0.02544230 0.01584010 -0.04494530
v 0.02558170 0.01593350 -0.04302310
v 0.02432750 0.01601620 -0.03481300
v 0.02427270 0.01601980 -0.03444370
v 0.02544730 0.01609170 -0.03444370
v 0.02619380 0.01612410 -0.03444370
v 0.02356600 0.01515700 -0.05244960
v 0.02356600 0.01529000 -0.05057080
v 0.02544230 -0.02017480 -0.05807500
v 0.02544230 -0.02013530 -0.05994840
v 0.02375510 -0.01978650 -0.06182170
v 0.02356600 -0.01985480 -0.05807500
v 0.02391440 -0.01975780 -0.06369510
v 0.02356100 -0.01880510 -0.08991650
v 0.02360080 -0.01881230 -0.08991650
v 0.03106130 -0.01932280 -0.08991650
v 0.03293760 -0.01938390 -0.08991650
v 0.02219730 -0.01973260 -0.04681870
v 0.02220230 -0.01972900 -0.04494530
v 0.02224210 -0.01971820 -0.04307200
v 0.02146070 -0.01948460 -0.03931990
v 0.02357100 -0.01960680 -0.03444370
v 0.02319270 -0.01954570 -0.03444370
v 0.02256560 -0.01943060 -0.03444370
v 0.02168970 -0.01926530 -0.03444370
v 0.02136120 -0.01949530 -0.04119320
v 0.02130150 -0.01950970 -0.04307200
v 0.02221720 -0.01972900 -0.04869750
v 0.02225210 -0.01972180 -0.05057080
v 0.02231180 -0.01971100 -0.05244960
v 0.02356600 -0.01993390 -0.05432290
v 0.02747290 0.01398500 -0.07103100
v 0.02695530 0.01407130 -0.06976040
v 0.02731860 0.01434090 -0.06744720
v 0.02731860 0.01451710 -0.06556840
v 0.02731860 0.01177410 -0.08991650
v 0.02544230 0.01449550 -0.06369510
v 0.02419310 0.01417920 -0.06517750
v 0.02356600 0.01438410 -0.06182170
v 0.02356600 0.01454950 -0.05994840
v 0.02356600 0.01470760 -0.05807500
v 0.02356600 0.01486580 -0.05619630
v 0.02356600 0.01502040 -0.05432290
v 0.02168970 0.01508870 -0.04869750
v 0.02168970 0.01532600 -0.04494530
v 0.02168970 0.01542300 -0.04307200
v 0.02356600 0.01572860 -0.04307200
v 0.02356600 0.01580770 -0.04119320
v 0.02339680 0.01589400 -0.03444370
v 0.02168970 0.01495930 -0.05057080
v 0.02356600 -0.01989800 -0.05619630
v 0.02342660 -0.01977940 -0.05978010
v 0.02270500 -0.01961760 -0.06029050
v 0.02281940 -0.01959240 -0.06182170
v 0.02256560 -0.01964990 -0.05807500
v 0.02173450 -0.01827660 -0.08991650
v 0.02168970 -0.01930120 -0.06182170
v 0.02126170 -0.01951330 -0.04681870
v 0.02126170 -0.01951690 -0.04494530
v 0.02093810 -0.01908910 -0.03444370
v 0.01981340 -0.01881950 -0.03444370
v 0.01981340 -0.01907110 -0.03931990
v 0.01981340 -0.01911790 -0.04307200
v 0.01981340 -0.01909630 -0.04119320
v 0.02128160 -0.01950970 -0.04869750
v 0.02131640 -0.01949890 -0.05057080
v 0.02137610 -0.01948100 -0.05244960
v 0.02238640 -0.01969310 -0.05432290
v 0.02544230 0.01162310 -0.08991650
v 0.02628340 0.01413240 -0.06851150
v 0.02588030 0.01419000 -0.06744720
v 0.02528800 0.01428340 -0.06570960
v 0.02456140 0.01411090 -0.06643180
v 0.02356600 0.01381970 -0.06744720
v 0.02356600 0.01400660 -0.06570960
v 0.02294390 0.01406050 -0.06406980
v 0.02260050 0.01412520 -0.06282090
v 0.02356600 0.01422590 -0.06354300
v 0.02168970 0.01466450 -0.05432290
v 0.02168970 0.01481550 -0.05244960
v 0.01981340 0.01463570 -0.04869750
v 0.01981340 0.01476160 -0.04681870
v 0.01981340 0.01488380 -0.04494530
v 0.01981340 0.01499160 -0.04307200
v 0.01981340 0.01509230 -0.04119320
v 0.02168970 0.01551290 -0.04119320
v 0.02168970 0.01555250 -0.03931990
v 0.02251090 0.01575740 -0.03444370
v 0.01981340 0.01450270 -0.05057080
v 0.02247110 -0.01967150 -0.05619630
v 0.02262530 -0.01963560 -0.05904160
v 0.02187380 -0.01941630 -0.05978010
v 0.02162990 -0.01940550 -0.05807500
v 0.02144580 -0.01945940 -0.05432290
v 0.02153040 -0.01943420 -0.05619630
v 0.02070920 -0.01780930 -0.08991650
v 0.01981340 -0.01887700 -0.05807500
v 0.01981340 -0.01880150 -0.05994840
v 0.01793700 -0.01824790 -0.05619630
v 0.01802160 -0.01812210 -0.05994840
v 0.01708600 -0.01772300 -0.05994840
v 0.01981340 -0.01893810 -0.05619630
v 0.01981340 -0.01912150 -0.04681870
v 0.01981340 -0.01912150 -0.04494530
v 0.01793700 -0.01822990 -0.03444370
v 0.01793700 -0.01846720 -0.03931990
v 0.01793700 -0.01849950 -0.04307200
v 0.01793700 -0.01848870 -0.04119320
v 0.01981340 -0.01910350 -0.04869750
v 0.01981340 -0.01907830 -0.05057080
v 0.01981340 -0.01904240 -0.05244960
v 0.02540250 0.01161590 -0.08991650
v 0.02356600 0.01361120 -0.06932060
v 0.02544230 0.01372620 -0.07119390
v 0.02557170 0.01396710 -0.06920650
v 0.02494460 0.01406050 -0.06744720
v 0.02168970 0.01338470 -0.06744720
v 0.02168970 0.01359320 -0.06556840
v 0.02186390 0.01385920 -0.06354300
v 0.02147570 0.01394190 -0.06182170
v 0.02111230 0.01403540 -0.05994840
v 0.02086850 0.01409290 -0.05871580
v 0.02241130 0.01417200 -0.06182170
v 0.02168970 0.01450270 -0.05619630
v 0.02157020 0.01431220 -0.05808050
v 0.02066940 0.01415040 -0.05746150
v 0.02016170 0.01429060 -0.05432290
v 0.01853430 0.01424750 -0.04869750
v 0.01872340 0.01417560 -0.05057080
v 0.01818590 0.01437330 -0.04494530
v 0.01802160 0.01443080 -0.04307200
v 0.01775290 0.01443080 -0.04138330
v 0.01793700 0.01458900 -0.03931990
v 0.01981340 0.01514980 -0.03931990
v 0.02056990 0.01538710 -0.03444370
v 0.02168970 0.01561720 -0.03444370
v 0.01970390 0.01432660 -0.05234640
v 0.01900710 0.01408210 -0.05290030
v 0.01884780 0.01413240 -0.05165140
v 0.01981340 -0.01899560 -0.05432290
v 0.01974370 -0.01721970 -0.08991650
v 0.01719550 -0.01766910 -0.06182170
v 0.01606570 -0.01703640 -0.06182170
v 0.01793700 -0.01838090 -0.05244960
v 0.01793700 -0.01831620 -0.05432290
v 0.01674750 -0.01788120 -0.05244960
v 0.01682720 -0.01784520 -0.05432290
v 0.01696150 -0.01777690 -0.05754830
v 0.01776280 -0.01809690 -0.05813480
v 0.01596610 -0.01730600 -0.05619630
v 0.01622990 -0.01734550 -0.05813480
v 0.01606570 -0.01715140 -0.05994840
v 0.01793700 -0.01849230 -0.04681870
v 0.01793700 -0.01849950 -0.04494530
v 0.01684210 -0.01782730 -0.03444370
v 0.01660820 -0.01794230 -0.03931990
v 0.01658330 -0.01795670 -0.04307200
v 0.01659320 -0.01794950 -0.04119320
v 0.01793700 -0.01846720 -0.04869750
v 0.01793700 -0.01842760 -0.05057080
v 0.02356600 0.01125640 -0.08991650
v 0.01981340 0.01279510 -0.06744720
v 0.01981340 0.01324810 -0.06369510
v 0.01981340 0.01344220 -0.06182170
v 0.01922610 0.01401380 -0.05432290
v 0.01759360 0.01389520 -0.04869750
v 0.01724520 0.01402820 -0.04494530
v 0.01778270 0.01381250 -0.05057080
v 0.01700140 0.01412170 -0.04213260
v 0.01693170 0.01415040 -0.04087830
v 0.01685210 0.01418640 -0.03931990
v 0.01662310 0.01426190 -0.03444370
v 0.01789720 0.01466810 -0.03444370
v 0.01869350 0.01490900 -0.03444370
v 0.01981340 0.01522170 -0.03444370
v 0.01811120 0.01378730 -0.05234640
v 0.01808140 0.01259020 -0.06369510
v 0.01842980 -0.01628140 -0.08991650
v 0.01469200 -0.01618790 -0.06182170
v 0.01480650 -0.01610880 -0.06369510
v 0.01448300 -0.01631020 -0.05807500
v 0.01458750 -0.01625260 -0.05994840
v 0.01668780 -0.01790990 -0.05057080
v 0.01575210 -0.01743540 -0.05057080
v 0.01581190 -0.01739950 -0.05244960
v 0.01430380 -0.01641800 -0.05432290
v 0.01438840 -0.01636770 -0.05619630
v 0.01660320 -0.01794950 -0.04681870
v 0.01658830 -0.01795670 -0.04494530
v 0.01627970 -0.01758640 -0.03444370
v 0.01567250 -0.01748930 -0.03931990
v 0.01590140 -0.01741740 -0.03444370
v 0.01564760 -0.01749650 -0.04307200
v 0.01565760 -0.01749290 -0.04119320
v 0.01663800 -0.01793510 -0.04869750
v 0.02179920 0.01061650 -0.08991650
v 0.01880800 0.01227740 -0.06859290
v 0.01836010 0.01247150 -0.06556840
v 0.01606570 0.01288860 -0.05244960
v 0.01606570 0.01321210 -0.04869750
v 0.01606570 0.01348530 -0.04494530
v 0.01606570 0.01360760 -0.04307200
v 0.01265650 0.01247870 -0.03444370
v 0.01303970 0.01265850 -0.03444370
v 0.01492600 0.01353570 -0.03444370
v 0.01714070 0.01218030 -0.06369510
v 0.01839490 -0.01625260 -0.08991650
v 0.01387080 -0.01539340 -0.06369510
v 0.01375640 -0.01549050 -0.06182170
v 0.01344780 -0.01573500 -0.05619630
v 0.01354730 -0.01565950 -0.05807500
v 0.01365190 -0.01557680 -0.05994840
v 0.01569740 -0.01746420 -0.04869750
v 0.01422920 -0.01646120 -0.05244960
v 0.01418940 -0.01657260 -0.04869750
v 0.01336820 -0.01579970 -0.05432290
v 0.01329350 -0.01585360 -0.05244960
v 0.01566260 -0.01748210 -0.04681870
v 0.01565260 -0.01749290 -0.04494530
v 0.01418940 -0.01665170 -0.03931990
v 0.01418940 -0.01657620 -0.03444370
v 0.01307450 -0.01597940 -0.03444370
v 0.01418940 -0.01665890 -0.04307200
v 0.01418940 -0.01665530 -0.04119320
v 0.01984820 0.00940859 -0.08991650
v 0.01629460 0.01081780 -0.06932060
v 0.01606570 0.01129600 -0.06556840
v 0.01770310 0.01190710 -0.06744720
v 0.01742440 0.01204730 -0.06556840
v 0.01506030 0.01228820 -0.05358440
v 0.01497080 0.01233850 -0.05244960
v 0.01483640 0.01242120 -0.05057080
v 0.01470700 0.01250030 -0.04869750
v 0.01183030 0.01199700 -0.03444370
v 0.01606570 0.01158360 -0.06369510
v 0.01747420 -0.01545100 -0.08991650
v 0.01277590 -0.01445510 -0.06369510
v 0.01266640 -0.01455220 -0.06182170
v 0.01246730 -0.01472480 -0.05807500
v 0.01231300 -0.01501960 -0.05244960
v 0.01132260 -0.01405970 -0.05387220
v 0.01418940 -0.01661570 -0.04681870
v 0.01400520 -0.01638930 -0.05070660
v 0.01325870 -0.01587880 -0.05141790
v 0.01315420 -0.01595430 -0.04681870
v 0.01318900 -0.01592910 -0.04869750
v 0.01321890 -0.01590390 -0.05016900
v 0.01418940 -0.01664450 -0.04494530
v 0.01251210 -0.01564870 -0.03444370
v 0.01311930 -0.01597940 -0.04307200
v 0.01312930 -0.01597220 -0.04494530
v 0.01775290 0.00774769 -0.08991650
v 0.01518970 0.01032530 -0.06814770
v 0.01591640 0.01088970 -0.06749070
v 0.01503050 0.01043680 -0.06689340
v 0.01487120 0.01055180 -0.06556840
v 0.01465220 0.01071000 -0.06369510
v 0.01287540 0.01068120 -0.05432290
v 0.01403510 0.01171660 -0.05244960
v 0.01390070 0.01181720 -0.05057080
v 0.01113350 0.01152960 -0.03444370
v 0.01638920 -0.01449470 -0.08991650
v 0.01153170 -0.01384400 -0.05807500
v 0.01173070 -0.01362830 -0.06182170
v 0.01183530 -0.01350250 -0.06369510
v 0.01291030 -0.01433650 -0.06556840
v 0.01143710 -0.01394100 -0.05619630
v 0.01127290 -0.01411360 -0.05244960
v 0.01248230 -0.01525320 -0.05070660
v 0.00801792 -0.01192420 -0.03444370
v 0.01036710 -0.01307110 -0.05244960
v 0.01067560 -0.01324720 -0.05442610
v 0.01062590 -0.01300630 -0.05619630
v 0.01065570 -0.01439760 -0.03444370
v 0.01004350 -0.01390510 -0.03444370
v 0.01579690 0.00597535 -0.08991650
v 0.01307950 0.00866442 -0.06744720
v 0.01431880 0.00972854 -0.06749070
v 0.01393060 0.00980763 -0.06556840
v 0.01371160 0.00999098 -0.06369510
v 0.01193480 0.00983999 -0.05432290
v 0.00945626 0.01039360 -0.03444370
v 0.01248720 0.00918570 -0.06182170
v 0.01473680 -0.01281580 -0.08991650
v 0.01090950 -0.01269000 -0.06182170
v 0.01102900 -0.01256420 -0.06369510
v 0.00982456 -0.01371100 -0.03444370
v 0.00884907 -0.01282300 -0.03444370
v 0.00714197 -0.01080980 -0.03444370
v 0.00950106 -0.01213280 -0.05150480
v 0.00960557 -0.01198180 -0.05432290
v 0.00953590 -0.01208240 -0.05244960
v 0.00968521 -0.01186310 -0.05619630
v 0.01547340 0.00564101 -0.08991650
v 0.01193480 0.00782678 -0.06556840
v 0.01174570 0.00806405 -0.06369510
v 0.01155160 0.00829054 -0.06182170
v 0.01287540 0.00887293 -0.06556840
v 0.01404500 0.00401247 -0.08991650
v 0.01268130 0.00905268 -0.06369510
v 0.01124800 0.00862847 -0.05807500
v 0.00923230 0.01018510 -0.03444370
v 0.01142710 0.00843074 -0.06052400
v 0.01451290 -0.01251740 -0.08991650
v 0.00987433 -0.01157910 -0.05994840
v 0.00997387 -0.01141370 -0.06182170
v 0.01116340 -0.01240240 -0.06556840
v 0.00623616 -0.00932864 -0.03444370
v 0.00907801 -0.01092480 -0.05619630
v 0.00926216 -0.01064080 -0.05994840
v 0.01130270 0.00671592 -0.06683910
v 0.01117330 0.00688848 -0.06556840
v 0.01099910 0.00712575 -0.06369510
v 0.01083490 0.00735224 -0.06182170
v 0.01396540 0.00390462 -0.08991650
v 0.00759488 0.00845231 -0.03444370
v 0.00855046 0.00948408 -0.03444370
v 0.00881423 0.00976809 -0.03444370
v 0.01080000 0.00770455 -0.05992120
v 0.00697773 0.00769376 -0.03444370
v 0.01356720 -0.01119450 -0.08991650
v 0.00936668 -0.01047550 -0.06182170
v 0.01235290 -0.00934302 -0.08991650
v 0.00561902 -0.00809195 -0.03444370
v 0.00819709 -0.00931785 -0.05619630
v 0.00838124 -0.00931785 -0.05807500
v 0.00857036 -0.00931785 -0.05994840
v 0.01041680 0.00568055 -0.06556840
v 0.01250220 0.00169728 -0.08991650
v 0.00998382 0.00554394 -0.06366790
v 0.00989922 0.00593580 -0.06182170
v 0.00974493 0.00619105 -0.05994840
v 0.00961055 0.00643191 -0.05807500
v 0.00952594 0.00657212 -0.05686960
v 0.01041680 0.00755715 -0.05807500
v 0.00559413 0.00556192 -0.03444370
v 0.00878935 -0.00931785 -0.06182170
v 0.01149180 -0.00740171 -0.08991650
v 0.00521588 -0.00725791 -0.03444370
v 0.00763469 -0.00834720 -0.05509940
v 0.00767948 -0.00822137 -0.05619630
v 0.00776907 -0.00795175 -0.05807500
v 0.01171580 0.00005435 -0.08991650
v 0.00956078 0.00461643 -0.06428150
v 0.00945626 0.00482494 -0.06302720
v 0.00922732 0.00525275 -0.05994840
v 0.00936668 0.00499750 -0.06182170
v 0.00477791 0.00323594 -0.03444370
v 0.00881423 0.00380396 -0.06182170
v 0.00854050 0.00380396 -0.05994840
v 0.00774916 0.00245582 -0.05807500
v 0.01117830 -0.00631242 -0.08991650
v 0.00787359 -0.00763179 -0.05994840
v 0.00795819 -0.00726870 -0.06166970
v 0.00761478 -0.00652812 -0.06094210
v 0.00460869 -0.00556825 -0.03444370
v 0.00746050 -0.00701345 -0.05807500
v 0.01149180 -0.00054961 -0.08991650
v 0.00810750 0.00193095 -0.06182170
v 0.00914769 0.00391540 -0.06366790
v 0.00446934 0.00193095 -0.03444370
v 0.00783377 0.00187703 -0.06006240
v 0.00756004 0.00121914 -0.05950860
v 0.00763967 0.00090637 -0.06076290
v 0.01096930 -0.00556825 -0.08991650
v 0.00751027 -0.00552871 -0.06166970
v 0.00710215 -0.00556825 -0.05807500
v 0.00731119 -0.00556825 -0.05994840
v 0.00422546 -0.00368806 -0.03444370
v 0.01107880 -0.00185820 -0.08991650
v 0.00741570 0.00019096 -0.06006240
v 0.00441957 0.00166133 -0.03444370
v 0.00754013 -0.00043097 -0.06182170
v 0.01090950 -0.00485284 -0.08991650
v 0.00757497 -0.00487801 -0.06306520
v 0.00419560 -0.00191931 -0.03444370
v 0.00690308 -0.00369165 -0.05807500
v 0.01093440 -0.00299063 -0.08991650
v 0.00761478 -0.00081924 -0.06282090
v 0.00716188 -0.00182225 -0.05994840
v 0.00428021 0.00005435 -0.03444370
v 0.01085480 -0.00369165 -0.08991650
v 0.00712206 -0.00369165 -0.05994840
v 0.00419560 -0.00181146 -0.03444370
v 0.00694289 -0.00182225 -0.05807500
v 0.00427026 -0.00007866 -0.03444370
f 619 660 662
f 619 662 663
f 619 663 664
f 619 664 620
f 620 664 621
f 629 632 669
f 624 665 625
f 618 661 660
f 625 666 626
f 628 667 634
f 628 629 668
f 628 668 667
f 622 624 623
f 625 665 666
f 617 637 658
f 618 660 619
f 617 658 659
f 614 655 615
f 613 644 656
f 613 657 647
f 613 656 657
f 612 655 614
f 612 653 654
f 612 652 653
f 612 651 652
f 612 650 651
f 611 650 612
f 618 659 661
f 612 654 655
f 638 684 639
f 630 670 631
f 640 689 690
f 640 690 641
f 611 649 650
f 640 688 689
f 640 687 688
f 640 686 687
f 640 684 686
f 639 684 640
f 638 685 681
f 638 646 685
f 638 683 684
f 638 682 683
f 638 681 682
f 637 680 658
f 636 679 680
f 636 678 679
f 635 677 678
f 635 678 636
f 634 677 635
f 634 667 677
f 632 676 669
f 632 675 676
f 632 670 675
f 631 670 632
f 630 674 670
f 630 673 674
f 630 672 673
f 630 671 672
f 630 633 671
f 629 669 668
f 610 649 611
f 588 620 621
f 610 647 648
f 594 597 629
f 594 628 598
f 592 627 595
f 592 593 627
f 591 625 626
f 589 591 590
f 589 625 591
f 589 624 625
f 589 623 624
f 588 623 589
f 588 622 623
f 588 621 622
f 588 619 620
f 594 629 628
f 586 619 588
f 586 659 618
f 586 617 659
f 586 587 617
f 585 617 587
f 584 617 585
f 584 602 617
f 582 616 583
f 581 616 582
f 581 615 616
f 581 614 615
f 580 614 581
f 641 690 691
f 580 612 614
f 586 618 619
f 610 648 649
f 595 627 596
f 596 631 632
f 609 647 610
f 609 613 647
f 608 646 638
f 608 645 646
f 607 645 608
f 605 643 644
f 604 643 605
f 604 642 643
f 604 641 642
f 604 640 641
f 604 639 640
f 604 638 639
f 603 608 638
f 596 630 631
f 603 638 604
f 601 637 617
f 601 680 637
f 601 636 680
f 600 636 601
f 600 635 636
f 600 634 635
f 599 634 600
f 599 628 634
f 598 628 599
f 597 632 629
f 596 633 630
f 596 627 633
f 596 632 597
f 601 617 602
f 641 691 692
f 702 741 706
f 642 692 643
f 700 739 704
f 700 717 739
f 699 729 738
f 699 738 730
f 698 736 737
f 697 736 698
f 697 735 736
f 696 735 697
f 695 735 696
f 695 734 735
f 694 734 695
f 694 733 734
f 694 732 733
f 702 704 740
f 693 732 694
f 693 730 731
f 693 699 730
f 692 729 699
f 692 728 729
f 691 726 728
f 691 728 692
f 690 726 691
f 689 726 690
f 688 726 689
f 688 727 726
f 687 727 688
f 687 726 727
f 687 725 726
f 693 731 732
f 702 740 741
f 704 742 740
f 704 739 743
f 579 644 613
f 716 760 743
f 716 759 760
f 715 759 716
f 715 758 759
f 714 758 715
f 714 752 758
f 713 755 757
f 712 757 756
f 712 713 757
f 712 756 753
f 711 754 755
f 711 755 713
f 710 754 711
f 708 753 752
f 708 712 753
f 707 708 752
f 707 752 714
f 706 751 746
f 706 742 751
f 706 741 742
f 705 750 745
f 705 749 750
f 705 748 749
f 705 747 748
f 705 746 747
f 705 706 746
f 704 744 742
f 704 743 744
f 687 724 725
f 641 692 642
f 687 723 724
f 687 721 722
f 662 703 663
f 661 702 701
f 661 704 702
f 661 700 704
f 660 703 662
f 660 702 703
f 660 701 702
f 660 661 701
f 659 700 661
f 658 700 659
f 658 680 700
f 657 699 693
f 656 692 699
f 663 703 702
f 656 699 657
f 652 697 653
f 651 697 652
f 650 697 651
f 650 696 697
f 649 696 650
f 649 695 696
f 649 694 695
f 648 694 649
f 647 694 648
f 647 693 694
f 647 657 693
f 644 692 656
f 643 692 644
f 653 697 698
f 663 702 706
f 663 706 705
f 667 707 714
f 686 721 687
f 686 720 721
f 684 720 686
f 683 720 684
f 683 719 720
f 682 718 719
f 682 719 683
f 681 718 682
f 681 685 718
f 680 717 700
f 679 717 680
f 679 716 717
f 679 715 716
f 678 715 679
f 678 714 715
f 677 714 678
f 676 713 712
f 676 711 713
f 676 712 708
f 675 711 676
f 670 711 675
f 670 710 711
f 670 709 710
f 670 674 709
f 668 676 708
f 668 669 676
f 667 708 707
f 667 668 708
f 667 714 677
f 687 722 723
f 579 605 644
f 469 473 513
f 578 611 612
f 482 531 532
f 482 526 531
f 481 530 524
f 481 529 530
f 481 528 529
f 481 527 528
f 481 522 527
f 481 523 522
f 481 484 523
f 481 526 482
f 481 525 526
f 481 524 525
f 480 523 484
f 482 532 483
f 479 523 480
f 479 521 522
f 477 520 517
f 477 515 520
f 475 545 500
f 475 519 545
f 475 518 519
f 474 518 475
f 474 517 518
f 474 477 517
f 473 516 513
f 472 516 473
f 472 507 516
f 471 477 476
f 479 522 523
f 470 477 471
f 483 533 534
f 483 532 533
f 501 546 502
f 501 545 546
f 500 545 501
f 499 543 544
f 498 543 499
f 497 543 498
f 497 542 543
f 496 542 497
f 496 541 542
f 495 541 496
f 495 540 541
f 494 540 495
f 494 539 540
f 483 534 485
f 492 539 493
f 491 538 492
f 490 535 537
f 490 538 491
f 490 537 538
f 489 532 536
f 489 533 532
f 489 536 535
f 488 535 490
f 487 489 535
f 487 535 488
f 486 533 489
f 485 533 486
f 485 534 533
f 492 538 539
f 470 515 477
f 470 512 515
f 469 514 512
f 455 495 456
f 455 494 495
f 453 455 454
f 453 493 455
f 453 492 493
f 452 488 490
f 452 492 453
f 452 491 492
f 452 490 491
f 451 489 487
f 451 486 489
f 451 488 452
f 451 487 488
f 455 493 539
f 450 486 451
f 449 486 450
f 449 485 486
f 448 483 449
f 447 484 481
f 447 480 484
f 447 483 448
f 447 482 483
f 447 481 482
f 445 480 447
f 445 479 480
f 445 478 479
f 445 446 478
f 444 477 474
f 449 483 485
f 455 539 494
f 456 495 496
f 456 496 457
f 469 513 514
f 716 743 717
f 469 512 470
f 468 507 472
f 467 511 508
f 467 510 511
f 466 467 508
f 465 509 507
f 465 508 509
f 465 466 508
f 465 507 468
f 464 506 505
f 463 506 464
f 463 505 506
f 463 504 505
f 463 502 504
f 463 503 502
f 462 503 463
f 462 502 503
f 462 501 502
f 460 462 461
f 460 501 462
f 460 500 501
f 460 475 500
f 459 498 499
f 458 498 459
f 458 497 498
f 457 497 458
f 457 496 497
f 502 547 504
f 578 612 580
f 502 546 548
f 504 547 549
f 558 559 594
f 557 597 594
f 557 596 597
f 557 595 596
f 556 592 595
f 556 595 557
f 555 557 594
f 555 594 559
f 553 593 554
f 552 592 556
f 552 593 592
f 552 554 593
f 551 590 591
f 558 594 598
f 550 590 551
f 549 588 589
f 548 585 587
f 547 587 586
f 547 548 587
f 547 588 549
f 547 586 588
f 546 585 548
f 546 584 585
f 546 562 584
f 545 562 546
f 543 583 544
f 543 582 583
f 542 582 543
f 550 589 590
f 541 582 542
f 558 598 560
f 560 599 561
f 578 610 611
f 577 610 578
f 576 610 577
f 575 610 576
f 575 609 610
f 575 613 609
f 575 579 613
f 574 605 579
f 572 603 573
f 571 603 572
f 570 603 571
f 569 603 570
f 568 603 569
f 560 598 599
f 568 608 603
f 568 606 607
f 567 606 568
f 566 606 567
f 565 605 574
f 565 604 605
f 564 604 565
f 564 603 604
f 564 573 603
f 562 602 584
f 562 601 602
f 562 600 601
f 562 599 600
f 561 599 562
f 568 607 608
f 541 581 582
f 540 581 541
f 540 580 581
f 519 562 545
f 518 562 519
f 518 561 562
f 518 560 561
f 517 560 518
f 517 558 560
f 517 520 558
f 516 552 556
f 515 559 558
f 515 555 559
f 515 558 520
f 514 557 555
f 514 556 557
f 521 563 527
f 513 556 514
f 512 555 515
f 512 514 555
f 510 553 511
f 509 554 552
f 509 553 554
f 509 511 553
f 508 511 509
f 507 552 516
f 507 509 552
f 505 550 551
f 504 550 505
f 504 589 550
f 504 549 589
f 513 516 556
f 521 527 522
f 524 530 525
f 525 530 564
f 539 580 540
f 538 580 539
f 537 580 538
f 537 578 580
f 536 579 575
f 536 574 579
f 535 578 537
f 535 577 578
f 535 576 577
f 535 575 576
f 535 536 575
f 532 574 536
f 531 574 532
f 530 573 564
f 530 572 573
f 530 571 572
f 530 570 571
f 530 569 570
f 528 530 529
f 527 530 528
f 527 569 530
f 527 568 569
f 527 567 568
f 527 566 567
f 527 563 566
f 526 574 531
f 526 565 574
f 525 565 526
f 525 564 565
f 502 548 547
f 717 743 739
f 832 844 862
f 718 762 722
f 926 944 945
f 925 943 926
f 922 942 934
f 922 940 942
f 921 941 940
f 921 939 941
f 921 940 922
f 920 939 921
f 919 939 920
f 919 938 939
f 917 937 919
f 917 936 937
f 917 924 936
f 926 945 946
f 917 918 924
f 914 935 933
f 914 934 935
f 913 934 914
f 912 934 913
f 912 922 934
f 912 916 922
f 911 915 933
f 909 931 910
f 908 931 909
f 907 932 930
f 907 929 932
f 907 931 908
f 907 930 931
f 914 933 915
f 906 929 907
f 926 946 947
f 926 928 927
f 946 961 962
f 945 961 946
f 944 948 960
f 944 961 945
f 944 960 961
f 942 959 954
f 942 958 959
f 938 941 939
f 938 940 941
f 938 942 940
f 938 958 942
f 938 957 958
f 935 956 953
f 926 947 928
f 935 955 956
f 934 954 935
f 934 942 954
f 933 935 953
f 932 949 952
f 930 952 950
f 930 932 952
f 930 951 931
f 930 950 951
f 929 949 932
f 929 947 949
f 928 947 929
f 926 948 944
f 926 943 948
f 935 954 955
f 905 929 906
f 904 929 905
f 902 904 903
f 885 886 911
f 883 909 910
f 881 883 882
f 880 883 881
f 880 909 883
f 879 906 907
f 879 884 906
f 879 909 880
f 879 908 909
f 879 907 908
f 876 906 884
f 876 905 906
f 876 904 905
f 886 887 912
f 876 903 904
f 875 903 876
f 875 902 903
f 874 902 875
f 874 901 902
f 872 898 899
f 872 873 898
f 872 900 897
f 872 899 900
f 869 898 873
f 869 871 898
f 868 872 897
f 867 897 891
f 867 868 897
f 876 878 877
f 886 912 913
f 886 913 914
f 886 914 915
f 902 929 904
f 902 928 929
f 902 927 928
f 901 927 902
f 901 926 927
f 901 925 926
f 898 900 899
f 898 923 900
f 896 924 918
f 896 923 924
f 895 923 896
f 894 923 895
f 894 900 923
f 893 896 918
f 892 896 893
f 891 900 894
f 891 897 900
f 890 922 916
f 890 921 922
f 890 920 921
f 890 919 920
f 890 917 919
f 889 918 917
f 889 893 918
f 889 917 890
f 887 916 912
f 887 890 916
f 887 888 890
f 886 915 911
f 946 962 963
f 946 963 952
f 946 952 947
f 947 952 949
f 1004 1017 1015
f 1004 1016 1017
f 1004 1005 1016
f 1004 1006 1005
f 1004 1015 1014
f 1002 1004 1003
f 1001 1004 1014
f 1000 1008 1011
f 998 1000 999
f 998 1008 1000
f 997 1013 1010
f 997 1012 1013
f 997 1011 1012
f 1005 1018 1016
f 997 1000 1011
f 993 1009 994
f 992 1009 993
f 992 998 1009
f 992 1008 998
f 992 1007 1008
f 991 1004 1002
f 991 1006 1004
f 991 1005 1006
f 990 1005 991
f 988 990 989
f 988 1005 990
f 987 1004 1001
f 987 1003 1004
f 994 1009 998
f 1007 1019 1008
f 1008 1013 1011
f 1008 1019 1013
f 1029 1035 1030
f 1029 1034 1035
f 1028 1031 1029
f 1027 1031 1028
f 1026 1029 1032
f 1026 1034 1029
f 1026 1033 1034
f 1025 1033 1026
f 1024 1026 1032
f 1023 1032 1031
f 1023 1024 1032
f 1021 1028 1029
f 1021 1022 1028
f 1021 1029 1030
f 1020 1022 1021
f 1019 1028 1022
f 1019 1027 1028
f 1018 1026 1024
f 1018 1025 1026
f 1017 1018 1024
f 1016 1018 1017
f 1015 1017 1024
f 1014 1024 1023
f 1014 1015 1024
f 1013 1022 1020
f 1013 1019 1022
f 1011 1013 1012
f 1010 1013 1020
f 1010 1020 1021
f 987 1002 1003
f 866 893 889
f 987 991 1002
f 985 1000 997
f 962 981 963
f 962 980 981
f 961 980 962
f 961 979 980
f 961 977 979
f 960 978 977
f 960 964 978
f 960 977 961
f 959 976 971
f 959 975 976
f 959 974 975
f 958 974 959
f 957 974 958
f 963 981 982
f 957 973 974
f 955 970 956
f 955 972 970
f 955 971 972
f 954 959 955
f 953 956 970
f 952 969 965
f 952 968 969
f 952 963 968
f 950 952 965
f 950 967 951
f 950 966 967
f 950 965 966
f 948 964 960
f 955 959 971
f 963 982 983
f 963 983 968
f 968 983 984
f 985 999 1000
f 985 998 999
f 985 994 998
f 985 996 994
f 985 995 996
f 981 996 995
f 981 994 996
f 981 985 982
f 981 995 985
f 980 994 981
f 979 993 994
f 979 994 980
f 978 993 979
f 978 992 993
f 977 978 979
f 976 991 986
f 976 990 991
f 975 990 976
f 974 988 989
f 974 990 975
f 974 989 990
f 973 988 974
f 972 986 987
f 971 976 986
f 971 986 972
f 969 982 985
f 969 983 982
f 969 984 983
f 968 984 969
f 986 991 987
f 718 761 762
f 865 866 889
f 864 895 896
f 766 811 812
f 763 765 764
f 762 810 766
f 761 810 762
f 760 793 789
f 760 809 793
f 760 808 809
f 759 808 760
f 758 808 759
f 758 802 808
f 757 807 806
f 757 805 807
f 756 757 806
f 766 812 767
f 756 806 803
f 755 805 757
f 754 804 755
f 752 803 802
f 752 756 803
f 752 753 756
f 752 802 758
f 751 789 793
f 750 792 791
f 750 801 792
f 750 800 801
f 750 799 800
f 750 797 799
f 750 798 797
f 755 804 805
f 749 798 750
f 766 810 811
f 767 769 768
f 787 825 788
f 783 824 784
f 783 823 824
f 782 823 783
f 782 822 823
f 782 821 822
f 782 820 821
f 782 819 820
f 782 818 819
f 781 818 782
f 780 818 781
f 779 818 780
f 779 816 818
f 767 812 769
f 778 817 815
f 777 816 779
f 777 815 816
f 777 778 815
f 776 787 786
f 775 787 776
f 772 774 773
f 771 774 772
f 771 787 775
f 771 814 787
f 771 813 814
f 771 812 813
f 770 812 771
f 769 812 770
f 778 788 817
f 748 798 749
f 748 797 798
f 748 796 797
f 730 777 731
f 729 776 738
f 728 772 773
f 728 776 729
f 728 775 776
f 728 771 775
f 728 774 771
f 728 773 774
f 726 772 728
f 726 771 772
f 726 770 771
f 726 769 770
f 726 768 769
f 730 738 778
f 726 767 768
f 726 762 766
f 723 762 726
f 723 725 724
f 723 726 725
f 722 762 723
f 722 765 763
f 720 722 721
f 720 765 722
f 720 764 765
f 719 764 720
f 718 764 719
f 718 763 764
f 718 722 763
f 726 766 767
f 730 778 777
f 731 777 732
f 732 779 780
f 748 795 796
f 748 794 795
f 746 748 747
f 746 794 748
f 746 793 794
f 746 751 793
f 745 792 790
f 745 791 792
f 745 750 791
f 743 760 789
f 743 789 744
f 742 789 751
f 742 744 789
f 740 742 741
f 738 788 778
f 738 787 788
f 738 786 787
f 738 776 786
f 736 785 737
f 736 784 785
f 736 783 784
f 735 783 736
f 734 780 781
f 734 783 735
f 734 782 783
f 734 781 782
f 733 780 734
f 732 777 779
f 732 780 733
f 787 814 812
f 787 812 826
f 787 826 825
f 788 825 817
f 845 877 878
f 845 876 877
f 845 875 876
f 845 874 875
f 844 867 862
f 842 873 872
f 842 869 873
f 842 843 869
f 842 872 868
f 840 871 869
f 840 870 871
f 840 841 870
f 840 869 843
f 845 878 846
f 838 842 868
f 837 838 868
f 837 867 844
f 836 865 859
f 835 866 865
f 835 863 866
f 835 865 836
f 834 863 835
f 833 864 863
f 833 862 864
f 833 863 834
f 832 862 833
f 444 476 477
f 830 859 831
f 837 868 867
f 846 878 855
f 846 855 847
f 848 879 849
f 864 894 895
f 864 891 894
f 863 893 866
f 863 892 893
f 863 864 892
f 862 891 864
f 862 867 891
f 860 887 861
f 860 888 887
f 859 890 888
f 859 889 890
f 859 865 889
f 859 888 860
f 858 861 887
f 858 887 886
f 857 858 886
f 856 886 885
f 856 857 886
f 855 884 879
f 855 876 884
f 855 878 876
f 852 882 883
f 850 852 851
f 849 852 850
f 849 882 852
f 849 881 882
f 849 880 881
f 849 879 880
f 848 855 879
f 830 836 859
f 864 896 892
f 829 858 857
f 828 860 861
f 806 842 838
f 805 841 840
f 805 839 841
f 805 840 807
f 804 839 805
f 803 806 838
f 802 838 837
f 802 803 838
f 802 837 808
f 801 836 830
f 799 834 835
f 799 801 800
f 799 836 801
f 806 807 840
f 799 835 836
f 796 834 797
f 795 834 796
f 795 833 834
f 795 832 833
f 793 795 794
f 793 832 795
f 793 809 832
f 792 831 828
f 792 830 831
f 792 801 830
f 790 829 827
f 790 828 829
f 790 792 828
f 797 834 799
f 806 840 843
f 806 843 842
f 808 837 844
f 828 859 860
f 828 831 859
f 828 858 829
f 827 857 856
f 827 829 857
f 826 855 848
f 826 847 855
f 825 826 848
f 820 854 821
f 819 854 820
f 818 854 819
f 818 853 854
f 818 852 853
f 818 851 852
f 818 850 851
f 818 849 850
f 817 825 848
f 816 849 818
f 815 849 816
f 815 848 849
f 815 817 848
f 812 847 826
f 812 846 847
f 812 814 813
f 811 845 846
f 811 846 812
f 810 845 811
f 809 844 832
f 808 844 809
f 828 861 858
f 444 471 476
f 327 365 328
f 444 474 475
f 96 101 146
f 96 145 97
f 94 99 95
f 94 144 99
f 94 139 144
f 93 142 138
f 92 143 141
f 92 140 143
f 92 142 93
f 92 141 142
f 90 92 91
f 90 140 92
f 89 140 90
f 96 146 145
f 89 143 140
f 89 178 177
f 89 216 178
f 89 256 216
f 89 258 256
f 89 263 258
f 89 264 263
f 89 299 264
f 89 330 299
f 89 331 330
f 89 332 331
f 89 333 332
f 89 367 333
f 89 397 367
f 89 177 143
f 89 403 397
f 97 145 147
f 97 148 98
f 109 308 341
f 109 269 308
f 109 231 269
f 109 232 231
f 109 233 232
f 109 193 233
f 109 196 193
f 109 197 196
f 109 198 197
f 109 157 198
f 107 109 108
f 107 157 109
f 107 156 157
f 97 147 148
f 106 156 107
f 102 156 103
f 102 155 156
f 102 154 155
f 102 148 154
f 101 153 146
f 101 152 153
f 100 152 101
f 100 151 152
f 100 150 151
f 100 149 150
f 99 149 100
f 99 144 149
f 98 148 102
f 103 156 106
f 89 404 403
f 89 406 404
f 89 407 406
f 89 1025 1018
f 89 1033 1025
f 89 1035 1033
f 89 1030 1035
f 89 1021 1030
f 89 1010 1021
f 89 997 1010
f 89 985 997
f 89 969 985
f 89 965 969
f 89 966 965
f 89 967 966
f 89 951 967
f 89 1018 1005
f 89 931 951
f 89 883 910
f 89 852 883
f 89 853 852
f 89 854 853
f 89 821 854
f 89 822 821
f 89 823 822
f 89 824 823
f 89 784 824
f 89 785 784
f 89 737 785
f 89 698 737
f 89 653 698
f 89 910 931
f 89 1005 988
f 89 988 973
f 89 973 957
f 89 408 407
f 89 437 408
f 89 439 437
f 89 467 439
f 89 510 467
f 89 553 510
f 89 593 553
f 89 627 593
f 89 633 627
f 89 671 633
f 89 672 671
f 89 673 672
f 89 674 673
f 89 709 674
f 89 710 709
f 89 754 710
f 89 804 754
f 89 839 804
f 89 841 839
f 89 870 841
f 89 871 870
f 89 898 871
f 89 923 898
f 89 924 923
f 89 936 924
f 89 937 936
f 89 919 937
f 89 938 919
f 89 957 938
f 109 341 340
f 89 654 653
f 109 340 372
f 109 402 435
f 118 166 161
f 118 165 166
f 118 164 165
f 118 163 164
f 117 163 118
f 117 158 163
f 116 158 117
f 114 118 161
f 114 162 159
f 114 161 162
f 113 119 115
f 113 160 119
f 112 114 159
f 119 167 168
f 112 160 113
f 111 158 116
f 109 111 110
f 109 158 111
f 109 163 158
f 109 164 163
f 109 165 164
f 109 205 165
f 109 206 205
f 109 207 206
f 109 247 207
f 109 287 247
f 109 280 287
f 109 240 280
f 112 159 160
f 109 281 240
f 119 168 120
f 120 168 169
f 145 181 147
f 145 180 181
f 144 179 149
f 144 175 179
f 144 176 175
f 142 178 175
f 141 178 142
f 141 177 178
f 141 143 177
f 139 176 144
f 138 176 139
f 138 175 176
f 138 142 175
f 119 160 167
f 127 131 130
f 126 173 174
f 125 173 126
f 124 173 125
f 124 172 173
f 122 129 128
f 122 132 123
f 121 129 122
f 121 124 129
f 121 172 124
f 121 171 172
f 120 171 121
f 120 170 171
f 120 169 170
f 126 174 127
f 109 316 281
f 109 317 316
f 109 351 317
f 109 1014 1023
f 109 1001 1014
f 109 987 1001
f 109 972 987
f 109 970 972
f 109 953 970
f 109 933 953
f 109 911 933
f 109 885 911
f 109 856 885
f 109 827 856
f 109 790 827
f 109 745 790
f 109 1023 1031
f 109 705 745
f 109 664 663
f 109 621 664
f 109 622 621
f 109 624 622
f 109 665 624
f 109 666 665
f 109 626 666
f 109 591 626
f 109 551 591
f 109 505 551
f 109 464 505
f 109 434 464
f 109 435 434
f 109 663 705
f 109 1031 1027
f 109 1027 1019
f 109 1019 1007
f 109 355 351
f 109 356 355
f 109 357 356
f 109 385 357
f 109 421 385
f 109 446 421
f 109 478 446
f 109 479 478
f 109 521 479
f 109 563 521
f 109 566 563
f 109 606 566
f 109 607 606
f 109 645 607
f 109 646 645
f 109 685 646
f 109 718 685
f 109 761 718
f 109 810 761
f 109 845 810
f 109 874 845
f 109 901 874
f 109 925 901
f 109 943 925
f 109 948 943
f 109 964 948
f 109 978 964
f 109 992 978
f 109 1007 992
f 109 372 402
f 89 655 654
f 89 615 655
f 89 616 615
f 32 61 33
f 31 60 57
f 31 59 60
f 31 38 59
f 30 58 32
f 29 31 57
f 29 58 30
f 29 57 58
f 27 56 37
f 27 37 28
f 26 53 56
f 26 56 27
f 23 55 53
f 32 58 61
f 23 54 55
f 23 53 26
f 22 46 47
f 22 52 23
f 22 51 52
f 22 50 51
f 22 49 50
f 22 48 49
f 22 47 48
f 21 46 22
f 20 46 21
f 19 41 45
f 19 46 20
f 19 45 46
f 23 52 54
f 18 41 19
f 33 61 62
f 33 63 35
f 49 78 79
f 49 77 78
f 47 49 48
f 46 49 47
f 46 76 49
f 45 68 74
f 45 76 46
f 45 75 76
f 45 74 75
f 44 73 69
f 44 72 73
f 44 71 72
f 43 71 44
f 33 62 63
f 42 71 43
f 42 66 70
f 41 68 45
f 40 69 67
f 40 44 69
f 40 68 41
f 40 67 68
f 39 66 42
f 39 65 66
f 39 64 65
f 37 56 59
f 37 59 38
f 35 63 64
f 35 64 36
f 42 70 71
f 17 44 40
f 17 43 44
f 16 43 17
f 6 24 25
f 6 23 24
f 6 22 23
f 6 21 22
f 6 20 21
f 6 19 20
f 5 18 6
f 5 15 18
f 4 17 14
f 4 16 17
f 4 13 16
f 4 15 5
f 4 14 15
f 6 25 7
f 3 13 4
f 2 12 9
f 2 8 12
f 2 11 3
f 2 10 11
f 2 9 10
f 1 8 2
f 1 7 8
f 1 6 7
f 1 5 6
f 1 4 5
f 1 3 4
f 1 2 3
f 1029 1031 1032
f 3 11 13
f 6 18 19
f 7 25 8
f 8 25 24
f 16 42 43
f 16 39 42
f 15 41 18
f 14 17 40
f 14 41 15
f 14 40 41
f 13 39 16
f 13 64 39
f 13 36 64
f 12 38 31
f 12 37 38
f 12 28 37
f 11 36 13
f 11 35 36
f 11 33 35
f 11 34 33
f 10 34 11
f 10 33 34
f 10 32 33
f 10 30 32
f 9 31 29
f 9 12 31
f 9 30 10
f 9 29 30
f 8 28 12
f 8 27 28
f 8 26 27
f 8 23 26
f 8 24 23
f 49 79 51
f 49 51 50
f 49 76 80
f 49 80 77
f 86 134 135
f 85 134 86
f 84 134 85
f 84 133 134
f 82 133 84
f 82 84 83
f 81 133 82
f 81 131 133
f 80 122 128
f 80 132 122
f 80 123 132
f 79 131 81
f 79 130 131
f 86 135 136
f 78 130 79
f 77 129 124
f 77 128 129
f 77 80 128
f 77 127 78
f 77 126 127
f 77 125 126
f 77 124 125
f 75 80 76
f 75 123 80
f 75 122 123
f 75 121 122
f 75 120 121
f 74 120 75
f 78 127 130
f 86 136 137
f 86 137 89
f 87 93 138
f 89 583 616
f 89 544 583
f 89 499 544
f 89 459 499
f 89 430 459
f 89 396 430
f 89 366 396
f 89 328 366
f 89 329 328
f 89 294 329
f 89 295 294
f 89 296 295
f 89 297 296
f 89 253 297
f 89 254 253
f 89 255 254
f 89 215 255
f 89 173 215
f 89 174 173
f 89 127 174
f 89 131 127
f 89 133 131
f 89 134 133
f 89 135 134
f 89 136 135
f 89 137 136
f 87 94 88
f 87 139 94
f 87 138 139
f 74 119 120
f 145 146 153
f 74 115 119
f 73 117 118
f 59 99 60
f 59 95 99
f 58 98 61
f 58 97 98
f 57 60 96
f 57 97 58
f 57 96 97
f 56 95 59
f 56 94 95
f 56 88 94
f 55 92 93
f 55 91 92
f 55 90 91
f 60 99 100
f 54 90 55
f 54 86 89
f 53 93 87
f 53 55 93
f 53 88 56
f 53 87 88
f 52 86 54
f 52 85 86
f 52 84 85
f 52 83 84
f 51 79 81
f 51 83 52
f 51 82 83
f 51 81 82
f 54 89 90
f 60 100 101
f 60 101 96
f 61 98 102
f 72 117 73
f 71 117 72
f 71 116 117
f 70 116 71
f 70 111 116
f 69 73 114
f 68 115 74
f 68 113 115
f 67 114 112
f 67 69 114
f 67 113 68
f 67 112 113
f 66 111 70
f 66 110 111
f 65 110 66
f 65 109 110
f 65 108 109
f 65 104 108
f 64 105 65
f 63 108 104
f 63 107 108
f 63 106 107
f 63 103 106
f 63 105 64
f 63 65 105
f 63 104 65
f 62 103 63
f 62 102 103
f 61 102 62
f 73 118 114
f 444 475 460
f 145 153 180
f 148 181 154
f 354 380 381
f 353 380 354
f 353 357 380
f 352 357 353
f 350 379 369
f 348 350 349
f 348 379 350
f 348 378 379
f 348 377 378
f 347 377 348
f 347 376 377
f 347 375 376
f 346 375 347
f 354 381 382
f 346 374 375
f 345 373 374
f 344 346 347
f 342 367 373
f 342 345 343
f 342 373 345
f 339 372 340
f 338 372 339
f 338 371 372
f 337 371 338
f 336 371 337
f 336 370 371
f 336 368 370
f 335 350 369
f 345 374 346
f 334 369 368
f 354 382 383
f 354 384 359
f 370 398 401
f 370 400 371
f 370 399 400
f 369 379 398
f 368 398 370
f 368 369 398
f 367 397 373
f 365 396 366
f 365 395 396
f 365 394 395
f 364 394 365
f 364 393 394
f 363 393 364
f 354 383 384
f 363 389 393
f 361 423 389
f 361 392 423
f 361 391 392
f 361 390 391
f 361 388 390
f 361 389 362
f 360 388 361
f 359 384 386
f 359 388 360
f 359 387 388
f 359 386 387
f 357 385 380
f 354 359 358
f 362 389 363
f 334 335 369
f 334 368 336
f 333 367 342
f 311 344 347
f 310 346 344
f 310 345 346
f 310 313 345
f 310 344 311
f 309 343 313
f 309 342 343
f 309 314 342
f 307 341 308
f 307 340 341
f 307 339 340
f 307 338 339
f 307 337 338
f 311 347 348
f 307 336 337
f 306 334 336
f 305 335 334
f 305 312 335
f 303 306 304
f 303 334 306
f 302 305 334
f 302 334 303
f 301 333 314
f 301 332 333
f 300 332 301
f 300 331 332
f 300 330 331
f 299 330 300
f 306 336 307
f 311 348 349
f 311 349 312
f 312 349 350
f 328 365 366
f 327 364 365
f 326 364 327
f 326 363 364
f 325 363 326
f 324 363 325
f 324 362 363
f 323 362 324
f 323 361 362
f 323 360 361
f 323 359 360
f 323 358 359
f 322 358 323
f 321 358 322
f 321 354 358
f 319 357 352
f 319 356 357
f 319 355 356
f 319 351 355
f 319 321 320
f 319 354 321
f 319 353 354
f 319 352 353
f 318 320 321
f 315 351 319
f 315 317 351
f 314 333 342
f 313 343 345
f 312 350 335
f 370 401 399
f 293 329 294
f 371 400 402
f 373 397 403
f 425 454 426
f 425 453 454
f 425 452 453
f 425 451 452
f 423 429 424
f 423 428 429
f 422 450 451
f 422 451 425
f 420 450 422
f 420 449 450
f 419 449 420
f 419 448 449
f 419 447 448
f 426 455 456
f 419 445 447
f 418 421 446
f 418 445 419
f 415 436 416
f 415 444 436
f 415 443 444
f 415 442 443
f 415 417 442
f 414 440 441
f 412 414 441
f 412 417 413
f 412 442 417
f 412 441 442
f 410 440 414
f 418 446 445
f 410 438 440
f 426 456 427
f 427 456 457
f 442 471 444
f 442 444 443
f 441 473 469
f 441 472 473
f 441 468 472
f 441 471 442
f 441 470 471
f 441 469 470
f 440 468 441
f 440 465 468
f 439 467 466
f 438 466 465
f 438 439 466
f 426 454 455
f 438 465 440
f 433 463 464
f 433 462 463
f 432 460 461
f 432 462 433
f 432 461 462
f 431 460 432
f 431 444 460
f 431 436 444
f 428 430 429
f 428 459 430
f 428 458 459
f 428 457 458
f 427 457 428
f 433 464 434
f 409 439 438
f 409 437 439
f 409 438 410
f 383 419 420
f 382 419 383
f 382 418 419
f 380 385 418
f 380 382 381
f 380 418 382
f 379 416 398
f 378 417 415
f 378 413 417
f 378 416 379
f 378 415 416
f 376 414 412
f 376 410 414
f 383 420 384
f 376 411 410
f 376 413 378
f 376 412 413
f 375 411 376
f 375 410 411
f 375 409 410
f 375 408 409
f 375 407 408
f 375 405 407
f 374 406 405
f 374 404 406
f 374 405 375
f 373 404 374
f 373 403 404
f 376 378 377
f 384 420 386
f 385 421 418
f 386 422 387
f 408 437 409
f 405 406 407
f 401 436 431
f 401 416 436
f 400 435 402
f 400 434 435
f 400 433 434
f 400 432 433
f 399 432 400
f 399 431 432
f 399 401 431
f 398 416 401
f 395 429 430
f 395 430 396
f 394 424 429
f 394 429 395
f 392 428 423
f 392 427 428
f 391 427 392
f 391 426 427
f 391 425 426
f 390 425 391
f 390 422 425
f 389 394 393
f 389 424 394
f 389 423 424
f 388 422 390
f 387 422 388
f 386 420 422
f 371 402 372
f 293 328 329
f 293 327 328
f 293 326 327
f 199 203 200
f 195 236 228
f 195 235 236
f 195 234 235
f 195 227 234
f 193 196 194
f 192 233 193
f 192 232 233
f 192 231 232
f 192 230 231
f 192 229 230
f 191 229 192
f 191 228 229
f 200 203 208
f 190 195 228
f 189 195 218
f 189 227 195
f 188 227 189
f 188 224 227
f 187 224 188
f 186 226 222
f 186 225 226
f 186 221 225
f 185 224 187
f 185 223 224
f 185 222 223
f 185 186 222
f 184 221 186
f 190 228 191
f 183 221 184
f 201 237 238
f 201 204 239
f 216 256 219
f 214 255 215
f 213 252 253
f 213 255 214
f 213 254 255
f 213 253 254
f 212 252 213
f 211 252 212
f 211 251 252
f 211 250 251
f 211 249 250
f 210 249 211
f 210 248 249
f 201 238 202
f 210 245 248
f 207 247 246
f 204 246 239
f 204 207 246
f 203 209 208
f 203 245 209
f 203 244 245
f 203 243 244
f 203 242 243
f 203 241 242
f 202 241 203
f 202 238 241
f 201 240 237
f 201 239 240
f 209 245 210
f 183 220 221
f 183 219 220
f 182 219 183
f 159 200 160
f 159 199 200
f 156 198 157
f 155 198 156
f 155 197 198
f 155 196 197
f 155 194 196
f 154 195 190
f 154 181 195
f 154 194 155
f 154 193 194
f 154 192 193
f 154 191 192
f 159 162 199
f 154 190 191
f 153 188 189
f 152 188 153
f 152 187 188
f 152 185 187
f 150 186 185
f 150 184 186
f 150 152 151
f 150 185 152
f 149 184 150
f 149 183 184
f 149 182 183
f 149 175 182
f 149 179 175
f 153 189 180
f 160 200 167
f 161 166 162
f 162 201 202
f 182 217 219
f 181 218 195
f 181 189 218
f 180 189 181
f 175 217 182
f 175 216 217
f 175 178 216
f 172 215 173
f 172 214 215
f 170 172 171
f 170 214 172
f 170 213 214
f 170 212 213
f 168 170 169
f 168 212 170
f 168 211 212
f 168 210 211
f 168 209 210
f 168 208 209
f 167 200 208
f 167 208 168
f 166 207 204
f 166 206 207
f 166 205 206
f 165 205 166
f 162 204 201
f 162 166 204
f 162 203 199
f 162 202 203
f 216 219 217
f 219 257 225
f 219 225 220
f 219 256 258
f 271 311 312
f 271 310 311
f 270 309 271
f 270 276 309
f 269 307 308
f 268 307 269
f 268 306 307
f 268 304 306
f 267 305 302
f 267 277 305
f 267 304 268
f 267 303 304
f 267 302 303
f 271 312 272
f 266 301 276
f 265 299 300
f 265 300 266
f 264 299 265
f 260 275 261
f 260 276 275
f 260 266 276
f 259 266 260
f 257 258 263
f 253 298 297
f 252 298 253
f 252 297 298
f 251 297 252
f 250 297 251
f 266 300 301
f 271 309 313
f 271 313 310
f 272 312 273
f 292 326 293
f 292 325 326
f 291 325 292
f 290 324 325
f 290 325 291
f 289 324 290
f 288 324 289
f 288 323 324
f 288 322 323
f 286 322 288
f 285 322 286
f 285 321 322
f 285 318 321
f 283 320 318
f 283 319 320
f 283 315 319
f 283 285 284
f 283 318 285
f 282 317 315
f 282 316 317
f 281 316 282
f 278 282 315
f 278 283 279
f 278 315 283
f 276 314 309
f 276 301 314
f 273 277 274
f 273 305 277
f 273 312 305
f 250 296 297
f 147 181 148
f 250 295 296
f 250 293 294
f 235 274 236
f 235 273 274
f 235 272 273
f 235 271 272
f 235 270 271
f 234 262 235
f 230 269 231
f 230 268 269
f 229 267 268
f 229 268 230
f 228 236 267
f 228 267 229
f 226 266 259
f 235 262 261
f 226 265 266
f 225 264 265
f 225 263 264
f 225 257 263
f 224 234 227
f 224 262 234
f 224 261 262
f 224 260 261
f 223 260 224
f 222 260 223
f 222 259 260
f 222 226 259
f 220 225 221
f 219 258 257
f 225 265 226
f 235 261 275
f 235 275 276
f 235 276 270
f 250 292 293
f 250 291 292
f 249 291 250
f 249 290 291
f 248 290 249
f 248 289 290
f 248 288 289
f 248 286 288
f 246 287 280
f 246 247 287
f 245 286 248
f 244 286 245
f 244 285 286
f 244 284 285
f 243 284 244
f 242 284 243
f 242 283 284
f 242 279 283
f 240 282 278
f 240 281 282
f 240 246 280
f 239 246 240
f 238 279 242
f 238 278 279
f 238 242 241
f 237 240 278
f 237 278 238
f 236 277 267
f 236 274 277
f 250 294 295
f 1033 1035 1034

