# https://github.com/mikedh/trimesh

o cube1_aligned.stl
v 41.80785751 38.47790146 40.90456772
v -37.90792847 31.74975967 41.25885391
v 48.53948593 -41.23369980 41.76825333
v 48.53948593 -41.23369980 41.76825333
v -37.90792847 31.74975967 41.25885391
v -31.17630196 -47.96184158 42.12253952
v 41.52748871 37.58747101 -39.08998489
v 41.80785751 38.47790146 40.90456772
v 48.25911331 -42.12413025 -38.22629929
v 48.25911331 -42.12413025 -38.22629929
v 41.80785751 38.47790146 40.90456772
v 48.53948593 -41.23369980 41.76825333
v -38.18830109 30.85932922 -38.73570251
v 41.52748871 37.58747101 -39.08998489
v -31.45667267 -48.85227203 -37.87201309
v -31.45667267 -48.85227203 -37.87201309
v 41.52748871 37.58747101 -39.08998489
v 48.25911331 -42.12413025 -38.22629929
v -37.90792847 31.74975967 41.25885391
v -38.18830109 30.85932922 -38.73570251
v -31.17630196 -47.96184158 42.12253952
v -31.17630196 -47.96184158 42.12253952
v -38.18830109 30.85932922 -38.73570251
v -31.45667267 -48.85227203 -37.87201309
v -31.17630196 -47.96184158 42.12253952
v -31.45667267 -48.85227203 -37.87201309
v 48.53948593 -41.23369980 41.76825333
v 48.53948593 -41.23369980 41.76825333
v -31.45667267 -48.85227203 -37.87201309
v 48.25911331 -42.12413025 -38.22629929
v -37.90792847 31.74975967 41.25885391
v 41.80785751 38.47790146 40.90456772
v -38.18830109 30.85932922 -38.73570251
v -38.18830109 30.85932922 -38.73570251
v 41.80785751 38.47790146 40.90456772
v 41.52748871 37.58747101 -39.08998489
f 1 2 3
f 4 5 6
f 7 8 9
f 10 11 12
f 13 14 15
f 16 17 18
f 19 20 21
f 22 23 24
f 25 26 27
f 28 29 30
f 31 32 33
f 34 35 36

